<svg xmlns="http://www.w3.org/2000/svg" xmlns:xlink="http://www.w3.org/1999/xlink" width="1080" zoomAndPan="magnify" viewBox="0 0 810 809.999993" height="1080" preserveAspectRatio="xMidYMid meet" version="1.0"><path fill="#faf7f7" d="M 286.917969 669.679688 L 217.625 549.644531 L 164.488281 580.316406 C 189.097656 622.851562 213.460938 665.386719 238.199219 707.921875 L 291.335938 677.25 Z M 237.691406 550.90625 L 310.015625 676.113281 C 312.289062 680.152344 310.898438 685.328125 306.988281 687.601562 L 239.335938 726.726562 C 235.296875 729 230.246094 727.738281 227.847656 723.699219 L 145.808594 581.578125 C 143.535156 577.539062 144.921875 572.363281 148.835938 570.09375 L 216.488281 530.964844 C 220.527344 528.691406 225.578125 530.082031 227.972656 533.992188 Z M 237.691406 550.90625 " fill-opacity="1" fill-rule="evenodd"/><path fill="#faf7f7" d="M 240.976562 556.460938 L 297.269531 654.027344 C 313.046875 645.570312 334.375 628.910156 353.183594 630.296875 L 508.050781 630.296875 C 519.914062 630.296875 529.761719 625.753906 537.332031 616.792969 L 644.492188 491.082031 C 647.648438 487.417969 649.035156 482.75 648.65625 478.207031 C 647.773438 463.3125 627.703125 454.097656 616.851562 465.710938 C 589.714844 492.847656 559.671875 525.917969 531.402344 551.035156 C 523.953125 557.597656 513.097656 546.996094 519.410156 539.421875 C 530.515625 525.03125 519.03125 502.441406 500.730469 502.945312 C 500.730469 502.945312 333.746094 502.945312 333.746094 502.945312 C 320.617188 502.945312 308.5 505.214844 297.269531 509.886719 C 276.945312 516.703125 256.375 541.695312 240.976562 556.460938 Z M 286.917969 669.679688 L 223.429688 559.742188 C 221.160156 556.460938 221.539062 552.042969 224.441406 549.140625 L 254.859375 518.847656 C 276.441406 497.265625 303.199219 486.15625 333.746094 486.15625 L 500.730469 486.15625 C 511.710938 486.15625 521.683594 490.574219 528.875 497.894531 C 534.429688 503.449219 538.46875 510.769531 539.859375 518.847656 L 604.859375 453.847656 C 625.179688 432.136719 664.054688 448.417969 665.316406 477.070312 C 665.949219 485.777344 663.296875 494.742188 657.113281 502.0625 L 549.953125 627.898438 C 544.527344 634.210938 538.21875 639.132812 531.148438 642.414062 C 524.082031 645.695312 516.253906 647.335938 507.925781 647.335938 L 353.183594 647.335938 C 345.988281 647.335938 340.054688 648.976562 333.996094 652.511719 L 298.53125 672.960938 C 294.363281 675.105469 289.316406 673.714844 286.917969 669.679688 Z M 286.917969 669.679688 " fill-opacity="1" fill-rule="evenodd"/><path fill="#faf7f7" d="M 500.730469 502.945312 C 489.75 502.945312 489.75 486.15625 500.730469 486.15625 C 535.566406 485.402344 553.867188 530.332031 528.875 554.0625 C 521.683594 561.257812 511.710938 565.800781 500.730469 565.800781 L 421.214844 565.800781 C 410.230469 565.800781 410.230469 549.015625 421.214844 549.015625 C 421.214844 549.015625 500.730469 549.015625 500.730469 549.015625 C 507.042969 549.015625 512.847656 546.363281 517.011719 542.199219 C 531.402344 528.820312 520.671875 502.3125 500.730469 502.945312 Z M 500.730469 502.945312 " fill-opacity="1" fill-rule="evenodd"/><path fill="#faf7f7" d="M 374.511719 157.234375 C 374.511719 146.378906 391.300781 146.128906 391.300781 157.234375 C 391.300781 157.234375 391.300781 444.253906 391.300781 444.253906 C 391.300781 445.640625 392.4375 446.777344 393.824219 446.777344 L 420.835938 446.777344 C 422.222656 446.777344 423.359375 445.640625 423.359375 444.253906 L 423.359375 157.234375 C 423.359375 146.378906 440.144531 146.128906 440.144531 157.234375 C 440.144531 157.234375 440.144531 444.253906 440.144531 444.253906 C 440.144531 449.554688 438 454.476562 434.464844 457.886719 C 426.765625 466.972656 406.195312 462.679688 393.824219 463.566406 C 383.09375 463.566406 374.511719 454.855469 374.511719 444.253906 Z M 374.511719 157.234375 " fill-opacity="1" fill-rule="evenodd"/><path fill="#faf7f7" d="M 407.328125 82.261719 C 468.417969 84.28125 468.417969 172.761719 407.328125 174.652344 C 346.238281 172.761719 346.238281 84.15625 407.328125 82.261719 Z M 428.15625 107.632812 C 400.007812 81 359.871094 121.136719 386.628906 149.285156 C 414.648438 175.914062 454.914062 135.777344 428.15625 107.632812 Z M 428.15625 107.632812 " fill-opacity="1" fill-rule="evenodd"/><path fill="#faf7f7" d="M 342.328125 266.035156 L 258.644531 266.035156 C 253.976562 266.035156 250.1875 262.25 250.1875 257.578125 L 250.1875 232.585938 L 178.496094 302.511719 L 250.1875 372.4375 L 250.1875 347.445312 C 250.1875 342.773438 253.976562 338.988281 258.644531 338.988281 L 342.328125 338.988281 Z M 267.101562 249.246094 L 350.785156 249.246094 C 355.453125 249.246094 359.242188 253.035156 359.242188 257.703125 L 359.242188 347.570312 C 359.242188 352.242188 355.453125 356.027344 350.785156 356.027344 L 267.101562 356.027344 L 267.101562 392.503906 C 267.355469 399.574219 257.886719 403.738281 252.839844 398.5625 L 160.574219 308.445312 C 157.292969 305.160156 157.417969 299.859375 160.699219 296.578125 L 252.335938 207.21875 C 257.003906 201.539062 267.355469 205.199219 267.101562 212.769531 Z M 267.101562 249.246094 " fill-opacity="1" fill-rule="evenodd"/><path fill="#faf7f7" d="M 464 183.613281 L 565.101562 183.613281 L 565.101562 158.875 C 564.847656 151.554688 574.695312 147.644531 579.488281 153.070312 L 662.539062 225.644531 C 666.453125 228.925781 666.328125 235.113281 662.414062 238.394531 L 578.984375 311.347656 C 573.808594 316.144531 564.847656 311.976562 565.101562 305.035156 L 565.101562 280.296875 L 464 280.296875 C 459.332031 280.296875 455.542969 276.511719 455.542969 271.839844 L 455.542969 191.945312 C 455.542969 187.402344 459.332031 183.613281 464 183.613281 Z M 573.429688 200.402344 L 472.332031 200.402344 L 472.332031 263.382812 L 573.429688 263.382812 C 585.296875 263.761719 581.128906 278.910156 581.886719 286.480469 L 644.367188 231.957031 L 581.886719 177.429688 C 581.257812 184.875 585.296875 200.023438 573.429688 200.402344 Z M 573.429688 200.402344 " fill-opacity="1" fill-rule="evenodd"/><path fill="#faf7f7" d="M 462.359375 347.191406 L 522.0625 347.191406 L 522.0625 335.074219 C 521.808594 327.753906 531.652344 323.84375 536.449219 329.269531 L 587.820312 374.203125 C 591.734375 377.484375 591.605469 383.667969 587.695312 386.949219 L 535.820312 432.261719 C 530.644531 437.058594 521.683594 432.894531 521.933594 425.953125 L 521.933594 413.835938 L 462.234375 413.835938 C 457.5625 413.835938 453.777344 410.046875 453.777344 405.378906 L 453.777344 355.773438 C 453.902344 350.980469 457.691406 347.191406 462.359375 347.191406 Z M 530.390625 364.105469 L 470.691406 364.105469 L 470.691406 396.796875 L 530.390625 396.796875 C 536.070312 396.796875 539.480469 401.972656 538.847656 407.273438 L 569.644531 380.386719 L 538.847656 353.503906 C 539.605469 358.804688 536.070312 364.105469 530.390625 364.105469 Z M 530.390625 364.105469 " fill-opacity="1" fill-rule="evenodd"/></svg>