<svg xmlns="http://www.w3.org/2000/svg" xmlns:xlink="http://www.w3.org/1999/xlink" width="1080" zoomAndPan="magnify" viewBox="0 0 810 809.999993" height="1080" preserveAspectRatio="xMidYMid meet" version="1.0"><defs><clipPath id="8a530f0e09"><path d="M 154 81 L 656 81 L 656 423 L 154 423 Z M 154 81 " clip-rule="nonzero"/></clipPath></defs><path fill="#faf7f7" d="M 722.886719 593.898438 L 563.945312 593.898438 C 563.542969 593.898438 563.144531 593.859375 562.75 593.78125 C 562.355469 593.703125 561.976562 593.585938 561.605469 593.433594 C 561.234375 593.277344 560.878906 593.089844 560.546875 592.867188 C 560.214844 592.644531 559.90625 592.390625 559.621094 592.109375 C 559.335938 591.824219 559.082031 591.515625 558.859375 591.179688 C 558.636719 590.847656 558.449219 590.496094 558.296875 590.125 C 558.140625 589.753906 558.027344 589.371094 557.949219 588.976562 C 557.871094 588.582031 557.832031 588.1875 557.832031 587.785156 C 557.832031 587.382812 557.871094 586.984375 557.949219 586.59375 C 558.027344 586.199219 558.140625 585.816406 558.296875 585.445312 C 558.449219 585.074219 558.636719 584.722656 558.859375 584.386719 C 559.082031 584.054688 559.335938 583.746094 559.621094 583.460938 C 559.90625 583.179688 560.214844 582.925781 560.546875 582.703125 C 560.878906 582.480469 561.234375 582.289062 561.605469 582.136719 C 561.976562 581.984375 562.355469 581.867188 562.75 581.789062 C 563.144531 581.710938 563.542969 581.671875 563.945312 581.671875 L 712.371094 581.671875 L 668.722656 505.257812 C 668.457031 504.792969 668.25 504.300781 668.113281 503.78125 C 667.972656 503.265625 667.90625 502.738281 667.90625 502.199219 C 667.90625 501.664062 667.972656 501.136719 668.113281 500.617188 C 668.25 500.097656 668.457031 499.609375 668.722656 499.144531 L 712.371094 422.726562 L 97.628906 422.726562 L 141.277344 499.144531 C 141.542969 499.609375 141.75 500.097656 141.886719 500.617188 C 142.027344 501.136719 142.09375 501.664062 142.09375 502.199219 C 142.09375 502.738281 142.027344 503.265625 141.886719 503.78125 C 141.75 504.300781 141.542969 504.792969 141.277344 505.257812 L 97.628906 581.671875 L 246.054688 581.671875 C 246.457031 581.671875 246.855469 581.710938 247.25 581.789062 C 247.644531 581.867188 248.023438 581.984375 248.394531 582.136719 C 248.765625 582.289062 249.117188 582.480469 249.453125 582.703125 C 249.785156 582.925781 250.09375 583.179688 250.378906 583.460938 C 250.664062 583.746094 250.917969 584.054688 251.140625 584.386719 C 251.363281 584.722656 251.550781 585.074219 251.703125 585.445312 C 251.859375 585.816406 251.972656 586.199219 252.050781 586.59375 C 252.128906 586.984375 252.167969 587.382812 252.167969 587.785156 C 252.167969 588.1875 252.128906 588.582031 252.050781 588.976562 C 251.972656 589.371094 251.859375 589.753906 251.703125 590.125 C 251.550781 590.496094 251.363281 590.847656 251.140625 591.179688 C 250.917969 591.515625 250.664062 591.824219 250.378906 592.109375 C 250.09375 592.390625 249.785156 592.644531 249.453125 592.867188 C 249.117188 593.089844 248.765625 593.277344 248.394531 593.433594 C 248.023438 593.585938 247.644531 593.703125 247.25 593.78125 C 246.855469 593.859375 246.457031 593.898438 246.054688 593.898438 L 87.113281 593.898438 C 86.578125 593.90625 86.050781 593.84375 85.53125 593.710938 C 85.011719 593.574219 84.519531 593.375 84.058594 593.105469 C 83.59375 592.835938 83.175781 592.507812 82.800781 592.125 C 82.429688 591.738281 82.113281 591.3125 81.855469 590.839844 C 81.585938 590.375 81.382812 589.886719 81.246094 589.367188 C 81.105469 588.847656 81.035156 588.320312 81.035156 587.785156 C 81.035156 587.25 81.105469 586.722656 81.246094 586.203125 C 81.382812 585.683594 81.585938 585.191406 81.855469 584.726562 L 128.925781 502.199219 L 81.855469 419.671875 C 81.585938 419.207031 81.382812 418.714844 81.246094 418.199219 C 81.105469 417.679688 81.035156 417.152344 81.035156 416.613281 C 81.035156 416.078125 81.105469 415.550781 81.246094 415.03125 C 81.382812 414.515625 81.585938 414.023438 81.855469 413.558594 C 82.113281 413.089844 82.429688 412.660156 82.800781 412.277344 C 83.175781 411.890625 83.59375 411.566406 84.058594 411.296875 C 84.519531 411.027344 85.011719 410.824219 85.53125 410.691406 C 86.050781 410.554688 86.578125 410.492188 87.113281 410.5 L 722.886719 410.5 C 723.421875 410.492188 723.949219 410.554688 724.46875 410.691406 C 724.988281 410.824219 725.480469 411.027344 725.941406 411.296875 C 726.40625 411.566406 726.824219 411.890625 727.199219 412.277344 C 727.570312 412.660156 727.886719 413.089844 728.144531 413.558594 C 728.414062 414.023438 728.617188 414.515625 728.753906 415.03125 C 728.894531 415.550781 728.964844 416.078125 728.964844 416.613281 C 728.964844 417.152344 728.894531 417.679688 728.753906 418.199219 C 728.617188 418.714844 728.414062 419.207031 728.144531 419.671875 L 681.074219 502.199219 L 728.144531 584.726562 C 728.414062 585.191406 728.617188 585.683594 728.753906 586.203125 C 728.894531 586.722656 728.964844 587.25 728.964844 587.785156 C 728.964844 588.320312 728.894531 588.847656 728.753906 589.367188 C 728.617188 589.886719 728.414062 590.375 728.144531 590.839844 C 727.886719 591.3125 727.570312 591.738281 727.199219 592.125 C 726.824219 592.507812 726.40625 592.835938 725.941406 593.105469 C 725.480469 593.375 724.988281 593.574219 724.46875 593.710938 C 723.949219 593.84375 723.421875 593.90625 722.886719 593.898438 Z M 722.886719 593.898438 " fill-opacity="1" fill-rule="nonzero"/><g clip-path="url(#8a530f0e09)"><path fill="#faf7f7" d="M 649.527344 422.726562 C 649.125 422.726562 648.730469 422.6875 648.335938 422.609375 C 647.941406 422.53125 647.558594 422.417969 647.1875 422.261719 C 646.816406 422.109375 646.464844 421.921875 646.132812 421.699219 C 645.796875 421.476562 645.488281 421.222656 645.207031 420.9375 C 644.921875 420.652344 644.667969 420.34375 644.445312 420.011719 C 644.222656 419.675781 644.035156 419.324219 643.878906 418.953125 C 643.726562 418.582031 643.609375 418.203125 643.53125 417.808594 C 643.453125 417.414062 643.414062 417.015625 643.414062 416.613281 L 643.414062 331.03125 C 643.414062 327.128906 643.320312 323.230469 643.128906 319.332031 C 642.9375 315.433594 642.648438 311.542969 642.265625 307.660156 C 641.882812 303.777344 641.40625 299.90625 640.835938 296.046875 C 640.261719 292.1875 639.59375 288.34375 638.832031 284.519531 C 638.074219 280.691406 637.21875 276.886719 636.269531 273.101562 C 635.320312 269.316406 634.28125 265.554688 633.148438 261.820312 C 632.015625 258.089844 630.792969 254.382812 629.476562 250.710938 C 628.164062 247.035156 626.761719 243.398438 625.265625 239.792969 C 623.773438 236.1875 622.191406 232.621094 620.523438 229.09375 C 618.855469 225.566406 617.101562 222.082031 615.261719 218.640625 C 613.425781 215.199219 611.5 211.808594 609.496094 208.460938 C 607.488281 205.113281 605.402344 201.816406 603.234375 198.574219 C 601.066406 195.328125 598.820312 192.140625 596.496094 189.007812 C 594.171875 185.871094 591.773438 182.796875 589.296875 179.78125 C 586.820312 176.765625 584.273438 173.8125 581.652344 170.921875 C 579.035156 168.03125 576.34375 165.203125 573.585938 162.445312 C 570.824219 159.6875 568 156.996094 565.109375 154.375 C 562.21875 151.757812 559.265625 149.207031 556.25 146.734375 C 553.234375 144.257812 550.15625 141.859375 547.023438 139.535156 C 543.890625 137.210938 540.699219 134.964844 537.457031 132.796875 C 534.210938 130.628906 530.917969 128.539062 527.570312 126.535156 C 524.222656 124.527344 520.828125 122.605469 517.386719 120.765625 C 513.945312 118.925781 510.460938 117.171875 506.933594 115.503906 C 503.410156 113.835938 499.84375 112.257812 496.238281 110.761719 C 492.632812 109.269531 488.992188 107.867188 485.320312 106.550781 C 481.644531 105.238281 477.941406 104.015625 474.207031 102.882812 C 470.472656 101.75 466.714844 100.707031 462.929688 99.761719 C 459.144531 98.8125 455.339844 97.957031 451.511719 97.195312 C 447.6875 96.433594 443.84375 95.769531 439.984375 95.195312 C 436.125 94.625 432.25 94.144531 428.367188 93.761719 C 424.484375 93.378906 420.59375 93.09375 416.699219 92.902344 C 412.800781 92.710938 408.902344 92.613281 405 92.613281 C 401.097656 92.613281 397.199219 92.710938 393.300781 92.902344 C 389.40625 93.09375 385.515625 93.378906 381.632812 93.761719 C 377.75 94.144531 373.875 94.625 370.015625 95.195312 C 366.15625 95.769531 362.3125 96.433594 358.488281 97.195312 C 354.660156 97.957031 350.855469 98.8125 347.070312 99.761719 C 343.285156 100.707031 339.527344 101.75 335.792969 102.882812 C 332.058594 104.015625 328.355469 105.238281 324.679688 106.550781 C 321.007812 107.867188 317.367188 109.269531 313.761719 110.761719 C 310.15625 112.257812 306.589844 113.835938 303.0625 115.503906 C 299.539062 117.171875 296.054688 118.925781 292.613281 120.765625 C 289.171875 122.605469 285.777344 124.527344 282.429688 126.535156 C 279.082031 128.539062 275.789062 130.628906 272.542969 132.796875 C 269.300781 134.964844 266.109375 137.210938 262.976562 139.535156 C 259.84375 141.859375 256.765625 144.257812 253.75 146.734375 C 250.734375 149.207031 247.78125 151.757812 244.890625 154.375 C 242 156.996094 239.175781 159.6875 236.414062 162.445312 C 233.65625 165.203125 230.964844 168.03125 228.347656 170.921875 C 225.726562 173.8125 223.179688 176.765625 220.703125 179.78125 C 218.226562 182.796875 215.828125 185.871094 213.503906 189.007812 C 211.179688 192.140625 208.933594 195.328125 206.765625 198.574219 C 204.597656 201.816406 202.511719 205.113281 200.503906 208.460938 C 198.5 211.808594 196.574219 215.199219 194.738281 218.640625 C 192.898438 222.082031 191.144531 225.566406 189.476562 229.09375 C 187.808594 232.621094 186.226562 236.1875 184.734375 239.792969 C 183.238281 243.398438 181.835938 247.035156 180.523438 250.710938 C 179.207031 254.382812 177.984375 258.089844 176.851562 261.820312 C 175.71875 265.554688 174.679688 269.316406 173.730469 273.101562 C 172.78125 276.886719 171.925781 280.691406 171.164062 284.519531 C 170.40625 288.34375 169.738281 292.1875 169.164062 296.046875 C 168.59375 299.90625 168.117188 303.777344 167.734375 307.660156 C 167.351562 311.542969 167.0625 315.433594 166.871094 319.332031 C 166.679688 323.230469 166.585938 327.128906 166.585938 331.03125 L 166.585938 416.613281 C 166.585938 417.015625 166.546875 417.414062 166.46875 417.808594 C 166.390625 418.203125 166.273438 418.582031 166.121094 418.953125 C 165.964844 419.324219 165.777344 419.675781 165.554688 420.011719 C 165.332031 420.34375 165.078125 420.652344 164.792969 420.9375 C 164.511719 421.222656 164.203125 421.476562 163.867188 421.699219 C 163.535156 421.921875 163.183594 422.109375 162.8125 422.261719 C 162.441406 422.417969 162.058594 422.53125 161.664062 422.609375 C 161.269531 422.6875 160.875 422.726562 160.472656 422.726562 C 160.070312 422.726562 159.671875 422.6875 159.277344 422.609375 C 158.886719 422.53125 158.503906 422.417969 158.132812 422.261719 C 157.761719 422.109375 157.410156 421.921875 157.074219 421.699219 C 156.742188 421.476562 156.433594 421.222656 156.148438 420.9375 C 155.863281 420.652344 155.613281 420.34375 155.390625 420.011719 C 155.164062 419.675781 154.976562 419.324219 154.824219 418.953125 C 154.671875 418.582031 154.554688 418.203125 154.476562 417.808594 C 154.398438 417.414062 154.359375 417.015625 154.359375 416.613281 L 154.359375 331.03125 C 154.359375 326.929688 154.460938 322.828125 154.660156 318.730469 C 154.863281 314.636719 155.164062 310.546875 155.566406 306.464844 C 155.96875 302.378906 156.46875 298.3125 157.070312 294.253906 C 157.671875 290.195312 158.375 286.15625 159.175781 282.132812 C 159.976562 278.109375 160.875 274.109375 161.871094 270.128906 C 162.867188 266.148438 163.960938 262.199219 165.152344 258.273438 C 166.339844 254.347656 167.628906 250.453125 169.011719 246.589844 C 170.390625 242.730469 171.867188 238.902344 173.4375 235.113281 C 175.007812 231.324219 176.667969 227.574219 178.421875 223.867188 C 180.175781 220.160156 182.019531 216.496094 183.953125 212.878906 C 185.886719 209.261719 187.910156 205.691406 190.019531 202.175781 C 192.125 198.65625 194.320312 195.191406 196.597656 191.78125 C 198.878906 188.371094 201.238281 185.019531 203.683594 181.722656 C 206.125 178.429688 208.648438 175.195312 211.25 172.023438 C 213.855469 168.855469 216.53125 165.75 219.285156 162.710938 C 222.042969 159.671875 224.871094 156.699219 227.769531 153.800781 C 230.671875 150.898438 233.640625 148.070312 236.679688 145.316406 C 239.71875 142.5625 242.824219 139.882812 245.996094 137.28125 C 249.164062 134.679688 252.398438 132.15625 255.691406 129.714844 C 258.988281 127.269531 262.339844 124.910156 265.75 122.628906 C 269.160156 120.351562 272.625 118.15625 276.144531 116.046875 C 279.664062 113.9375 283.230469 111.917969 286.847656 109.984375 C 290.464844 108.050781 294.128906 106.207031 297.835938 104.453125 C 301.546875 102.699219 305.292969 101.039062 309.082031 99.46875 C 312.875 97.898438 316.699219 96.421875 320.5625 95.039062 C 324.421875 93.660156 328.316406 92.371094 332.242188 91.179688 C 336.167969 89.992188 340.121094 88.898438 344.097656 87.898438 C 348.078125 86.902344 352.078125 86.003906 356.101562 85.203125 C 360.125 84.40625 364.164062 83.703125 368.222656 83.101562 C 372.28125 82.5 376.351562 81.996094 380.433594 81.59375 C 384.515625 81.195312 388.605469 80.890625 392.703125 80.691406 C 396.796875 80.488281 400.898438 80.386719 405 80.386719 C 409.101562 80.386719 413.203125 80.488281 417.296875 80.691406 C 421.394531 80.890625 425.484375 81.195312 429.566406 81.59375 C 433.648438 81.996094 437.71875 82.5 441.777344 83.101562 C 445.835938 83.703125 449.875 84.40625 453.898438 85.203125 C 457.921875 86.003906 461.921875 86.902344 465.902344 87.898438 C 469.878906 88.898438 473.832031 89.992188 477.757812 91.179688 C 481.683594 92.371094 485.578125 93.660156 489.4375 95.039062 C 493.300781 96.421875 497.125 97.898438 500.917969 99.46875 C 504.707031 101.039062 508.453125 102.699219 512.164062 104.453125 C 515.871094 106.207031 519.535156 108.050781 523.152344 109.984375 C 526.769531 111.917969 530.335938 113.9375 533.855469 116.046875 C 537.375 118.15625 540.839844 120.351562 544.25 122.628906 C 547.660156 124.910156 551.011719 127.269531 554.308594 129.714844 C 557.601562 132.15625 560.835938 134.679688 564.003906 137.28125 C 567.175781 139.882812 570.28125 142.5625 573.320312 145.316406 C 576.359375 148.070312 579.328125 150.898438 582.230469 153.800781 C 585.128906 156.699219 587.957031 159.671875 590.714844 162.710938 C 593.46875 165.75 596.144531 168.855469 598.75 172.023438 C 601.351562 175.195312 603.875 178.429688 606.316406 181.722656 C 608.761719 185.019531 611.121094 188.371094 613.402344 191.78125 C 615.679688 195.191406 617.875 198.65625 619.980469 202.175781 C 622.089844 205.691406 624.113281 209.261719 626.046875 212.878906 C 627.980469 216.496094 629.824219 220.160156 631.578125 223.867188 C 633.332031 227.574219 634.992188 231.324219 636.5625 235.113281 C 638.132812 238.902344 639.609375 242.730469 640.988281 246.589844 C 642.371094 250.453125 643.65625 254.347656 644.847656 258.273438 C 646.039062 262.199219 647.132812 266.148438 648.128906 270.128906 C 649.125 274.109375 650.023438 278.109375 650.824219 282.132812 C 651.625 286.15625 652.328125 290.195312 652.929688 294.253906 C 653.53125 298.3125 654.03125 302.378906 654.433594 306.464844 C 654.835938 310.546875 655.136719 314.636719 655.339844 318.730469 C 655.539062 322.828125 655.640625 326.929688 655.640625 331.03125 L 655.640625 416.613281 C 655.640625 417.015625 655.601562 417.414062 655.523438 417.808594 C 655.445312 418.203125 655.328125 418.582031 655.175781 418.953125 C 655.023438 419.324219 654.835938 419.675781 654.609375 420.011719 C 654.386719 420.34375 654.132812 420.652344 653.851562 420.9375 C 653.566406 421.222656 653.257812 421.476562 652.925781 421.699219 C 652.589844 421.921875 652.238281 422.109375 651.867188 422.261719 C 651.496094 422.417969 651.113281 422.53125 650.722656 422.609375 C 650.328125 422.6875 649.929688 422.726562 649.527344 422.726562 Z M 649.527344 422.726562 " fill-opacity="1" fill-rule="nonzero"/></g><path fill="#faf7f7" d="M 270.507812 422.726562 C 270.109375 422.71875 269.714844 422.675781 269.324219 422.589844 C 268.933594 422.507812 268.554688 422.386719 268.1875 422.230469 C 267.820312 422.074219 267.472656 421.886719 267.140625 421.660156 C 266.808594 421.4375 266.503906 421.183594 266.222656 420.902344 C 265.9375 420.621094 265.6875 420.3125 265.460938 419.984375 C 265.238281 419.652344 265.050781 419.304688 264.894531 418.9375 C 264.738281 418.570312 264.617188 418.191406 264.535156 417.800781 C 264.449219 417.410156 264.402344 417.015625 264.394531 416.613281 L 264.394531 378.101562 C 264.394531 376.800781 264.449219 375.503906 264.554688 374.207031 C 264.660156 372.910156 264.816406 371.621094 265.03125 370.339844 C 265.242188 369.054688 265.507812 367.785156 265.824219 366.523438 C 266.140625 365.261719 266.507812 364.015625 266.929688 362.785156 C 267.347656 361.554688 267.820312 360.34375 268.339844 359.152344 C 268.859375 357.960938 269.425781 356.789062 270.042969 355.644531 C 270.65625 354.5 271.320312 353.382812 272.027344 352.292969 C 272.734375 351.203125 273.488281 350.140625 274.28125 349.113281 C 275.078125 348.085938 275.914062 347.089844 276.792969 346.128906 C 277.667969 345.171875 278.585938 344.25 279.539062 343.363281 C 280.492188 342.480469 281.480469 341.636719 282.503906 340.835938 C 283.527344 340.03125 284.582031 339.273438 285.664062 338.558594 C 286.75 337.839844 287.863281 337.171875 289.003906 336.546875 C 290.144531 335.921875 291.3125 335.347656 292.5 334.820312 C 293.6875 334.289062 294.894531 333.8125 296.125 333.382812 C 297.351562 332.957031 298.59375 332.578125 299.851562 332.253906 L 347.78125 320.027344 C 348.183594 319.925781 348.589844 319.867188 349.003906 319.847656 C 349.414062 319.824219 349.828125 319.847656 350.234375 319.90625 C 350.644531 319.96875 351.042969 320.066406 351.433594 320.207031 C 351.824219 320.347656 352.195312 320.523438 352.550781 320.734375 C 352.90625 320.949219 353.234375 321.195312 353.542969 321.472656 C 353.847656 321.75 354.125 322.054688 354.371094 322.386719 C 354.617188 322.71875 354.828125 323.074219 355.007812 323.449219 C 355.183594 323.820312 355.320312 324.210938 355.421875 324.613281 C 355.523438 325.011719 355.582031 325.421875 355.601562 325.832031 C 355.621094 326.246094 355.601562 326.65625 355.542969 327.066406 C 355.480469 327.476562 355.378906 327.875 355.242188 328.265625 C 355.101562 328.65625 354.925781 329.027344 354.710938 329.382812 C 354.5 329.738281 354.253906 330.066406 353.976562 330.375 C 353.699219 330.679688 353.390625 330.957031 353.058594 331.203125 C 352.726562 331.449219 352.375 331.660156 352 331.835938 C 351.625 332.015625 351.238281 332.152344 350.835938 332.253906 L 302.910156 344.480469 C 301.0625 344.972656 299.265625 345.613281 297.523438 346.398438 C 295.777344 347.183594 294.109375 348.101562 292.515625 349.15625 C 290.917969 350.210938 289.417969 351.386719 288.015625 352.6875 C 286.609375 353.984375 285.320312 355.386719 284.140625 356.890625 C 282.960938 358.398438 281.914062 359.992188 280.992188 361.667969 C 280.074219 363.34375 279.292969 365.082031 278.65625 366.886719 C 278.015625 368.6875 277.527344 370.53125 277.183594 372.410156 C 276.84375 374.292969 276.65625 376.191406 276.621094 378.101562 L 276.621094 410.5 L 533.378906 410.5 L 533.378906 378.101562 C 533.375 376.167969 533.214844 374.246094 532.898438 372.339844 C 532.578125 370.433594 532.109375 368.5625 531.484375 366.734375 C 530.859375 364.902344 530.089844 363.136719 529.175781 361.433594 C 528.257812 359.726562 527.210938 358.109375 526.03125 356.578125 C 524.851562 355.046875 523.554688 353.621094 522.140625 352.300781 C 520.722656 350.984375 519.210938 349.789062 517.601562 348.71875 C 515.992188 347.648438 514.304688 346.714844 512.539062 345.921875 C 510.777344 345.128906 508.960938 344.484375 507.089844 343.988281 L 459.164062 331.765625 C 458.761719 331.664062 458.375 331.527344 458 331.347656 C 457.625 331.171875 457.269531 330.960938 456.9375 330.714844 C 456.605469 330.46875 456.300781 330.191406 456.019531 329.886719 C 455.742188 329.578125 455.496094 329.25 455.285156 328.894531 C 455.070312 328.539062 454.894531 328.167969 454.753906 327.777344 C 454.613281 327.386719 454.515625 326.988281 454.453125 326.578125 C 454.394531 326.167969 454.371094 325.757812 454.390625 325.34375 C 454.414062 324.929688 454.472656 324.523438 454.574219 324.121094 C 454.671875 323.71875 454.8125 323.332031 454.988281 322.957031 C 455.164062 322.582031 455.378906 322.230469 455.625 321.898438 C 455.871094 321.5625 456.148438 321.257812 456.453125 320.980469 C 456.761719 320.703125 457.089844 320.457031 457.445312 320.246094 C 457.800781 320.03125 458.175781 319.855469 458.5625 319.714844 C 458.953125 319.578125 459.351562 319.476562 459.761719 319.417969 C 460.171875 319.355469 460.582031 319.335938 460.996094 319.355469 C 461.410156 319.375 461.816406 319.4375 462.21875 319.539062 L 510.148438 331.765625 C 511.414062 332.09375 512.667969 332.472656 513.90625 332.90625 C 515.144531 333.335938 516.359375 333.820312 517.558594 334.355469 C 518.753906 334.886719 519.925781 335.46875 521.074219 336.101562 C 522.222656 336.734375 523.34375 337.410156 524.4375 338.132812 C 525.527344 338.859375 526.589844 339.628906 527.617188 340.4375 C 528.648438 341.25 529.640625 342.105469 530.597656 343 C 531.554688 343.894531 532.472656 344.828125 533.351562 345.800781 C 534.234375 346.769531 535.070312 347.777344 535.867188 348.816406 C 536.664062 349.859375 537.417969 350.929688 538.125 352.035156 C 538.832031 353.136719 539.492188 354.265625 540.105469 355.425781 C 540.71875 356.582031 541.28125 357.765625 541.796875 358.96875 C 542.3125 360.175781 542.777344 361.398438 543.191406 362.644531 C 543.605469 363.886719 543.964844 365.144531 544.273438 366.417969 C 544.582031 367.691406 544.839844 368.976562 545.039062 370.273438 C 545.242188 371.566406 545.390625 372.867188 545.484375 374.175781 C 545.578125 375.484375 545.617188 376.792969 545.605469 378.101562 L 545.605469 416.613281 C 545.605469 417.015625 545.566406 417.414062 545.484375 417.808594 C 545.40625 418.203125 545.292969 418.582031 545.136719 418.953125 C 544.984375 419.324219 544.796875 419.675781 544.574219 420.011719 C 544.351562 420.34375 544.097656 420.652344 543.8125 420.9375 C 543.53125 421.222656 543.21875 421.476562 542.886719 421.699219 C 542.554688 421.921875 542.199219 422.109375 541.828125 422.261719 C 541.460938 422.417969 541.078125 422.53125 540.683594 422.609375 C 540.289062 422.6875 539.890625 422.726562 539.492188 422.726562 Z M 539.492188 416.613281 Z M 539.492188 416.613281 " fill-opacity="1" fill-rule="nonzero"/><path fill="#faf7f7" d="M 405 366.121094 C 404.058594 366.109375 403.164062 365.902344 402.308594 365.507812 C 343.5 336.042969 343.257812 328.828125 343.257812 325.652344 C 343.234375 325.066406 343.300781 324.492188 343.449219 323.925781 C 343.597656 323.359375 343.824219 322.824219 344.125 322.324219 C 344.429688 321.828125 344.800781 321.378906 345.234375 320.988281 C 345.667969 320.597656 346.152344 320.277344 346.679688 320.027344 C 349.21875 318.320312 351.5625 316.378906 353.714844 314.203125 C 355.859375 312.023438 357.769531 309.65625 359.441406 307.089844 C 361.109375 304.527344 362.507812 301.824219 363.632812 298.980469 C 364.757812 296.136719 365.585938 293.207031 366.121094 290.195312 C 366.191406 289.804688 366.304688 289.421875 366.453125 289.054688 C 366.601562 288.683594 366.785156 288.335938 367.003906 288.003906 C 367.222656 287.671875 367.472656 287.363281 367.75 287.082031 C 368.03125 286.796875 368.335938 286.546875 368.667969 286.324219 C 368.996094 286.101562 369.34375 285.914062 369.710938 285.761719 C 370.078125 285.609375 370.457031 285.496094 370.847656 285.417969 C 371.238281 285.339844 371.632812 285.300781 372.03125 285.304688 C 372.429688 285.304688 372.820312 285.347656 373.210938 285.425781 C 373.605469 285.5 373.984375 285.609375 374.355469 285.757812 C 374.726562 285.90625 375.082031 286.089844 375.414062 286.308594 C 375.75 286.527344 376.0625 286.773438 376.347656 287.050781 C 376.632812 287.332031 376.890625 287.632812 377.117188 287.964844 C 377.34375 288.292969 377.539062 288.640625 377.695312 289.007812 C 377.855469 289.375 377.976562 289.753906 378.0625 290.144531 C 378.144531 290.535156 378.191406 290.929688 378.199219 291.328125 C 378.203125 291.726562 378.171875 292.125 378.101562 292.515625 C 377.460938 295.800781 376.558594 299.011719 375.398438 302.148438 C 374.238281 305.289062 372.828125 308.3125 371.175781 311.222656 C 369.523438 314.132812 367.648438 316.890625 365.550781 319.492188 C 363.449219 322.097656 361.152344 324.519531 358.660156 326.75 C 373.539062 336.550781 388.984375 345.355469 405 353.160156 C 421.03125 345.382812 436.476562 336.578125 451.339844 326.75 C 448.804688 324.582031 446.46875 322.21875 444.335938 319.65625 C 442.199219 317.09375 440.292969 314.371094 438.617188 311.488281 C 436.941406 308.605469 435.519531 305.605469 434.351562 302.480469 C 433.183594 299.359375 432.28125 296.160156 431.652344 292.882812 C 431.582031 292.480469 431.550781 292.078125 431.554688 291.671875 C 431.5625 291.261719 431.609375 290.859375 431.699219 290.460938 C 431.785156 290.0625 431.910156 289.675781 432.074219 289.300781 C 432.234375 288.929688 432.433594 288.574219 432.664062 288.238281 C 432.898438 287.902344 433.160156 287.59375 433.457031 287.3125 C 433.75 287.027344 434.066406 286.777344 434.410156 286.554688 C 434.753906 286.335938 435.117188 286.152344 435.496094 286.003906 C 435.875 285.851562 436.265625 285.742188 436.667969 285.671875 C 437.066406 285.597656 437.472656 285.566406 437.878906 285.574219 C 438.289062 285.582031 438.691406 285.628906 439.089844 285.714844 C 439.488281 285.800781 439.875 285.925781 440.25 286.089844 C 440.621094 286.253906 440.976562 286.449219 441.3125 286.683594 C 441.644531 286.914062 441.957031 287.179688 442.238281 287.472656 C 442.519531 287.765625 442.773438 288.085938 442.992188 288.425781 C 443.214844 288.769531 443.398438 289.132812 443.546875 289.511719 C 443.695312 289.890625 443.808594 290.28125 443.878906 290.683594 C 444.421875 293.683594 445.261719 296.597656 446.402344 299.421875 C 447.542969 302.25 448.960938 304.929688 450.652344 307.464844 C 452.347656 310 454.28125 312.335938 456.457031 314.472656 C 458.628906 316.609375 461 318.5 463.566406 320.148438 C 464.078125 320.402344 464.546875 320.71875 464.972656 321.101562 C 465.398438 321.488281 465.761719 321.921875 466.066406 322.410156 C 466.367188 322.894531 466.597656 323.414062 466.753906 323.964844 C 466.910156 324.515625 466.988281 325.078125 466.988281 325.652344 C 466.988281 329.320312 466.988281 336.042969 407.8125 365.507812 C 406.921875 365.921875 405.984375 366.125 405 366.121094 Z M 405 366.121094 " fill-opacity="1" fill-rule="nonzero"/><path fill="#faf7f7" d="M 405 308.410156 C 365.996094 308.410156 334.210938 270.753906 334.210938 224.660156 C 334.132812 223.46875 334.085938 222.273438 334.070312 221.078125 C 334.058594 219.882812 334.074219 218.6875 334.121094 217.492188 C 334.167969 216.300781 334.246094 215.105469 334.355469 213.917969 C 334.464844 212.726562 334.605469 211.539062 334.777344 210.355469 C 334.949219 209.171875 335.148438 207.996094 335.382812 206.824219 C 335.613281 205.652344 335.878906 204.484375 336.171875 203.328125 C 336.464844 202.167969 336.785156 201.015625 337.140625 199.875 C 337.492188 198.734375 337.875 197.601562 338.285156 196.476562 C 338.699219 195.355469 339.140625 194.246094 339.609375 193.144531 C 340.078125 192.046875 340.574219 190.960938 341.101562 189.886719 C 341.628906 188.8125 342.179688 187.753906 342.761719 186.710938 C 343.34375 185.664062 343.949219 184.636719 344.585938 183.625 C 345.21875 182.609375 345.878906 181.613281 346.566406 180.636719 C 347.253906 179.65625 347.964844 178.699219 348.699219 177.753906 C 349.4375 176.8125 350.199219 175.890625 350.980469 174.988281 C 351.765625 174.089844 352.574219 173.207031 353.402344 172.347656 C 354.234375 171.488281 355.085938 170.648438 355.957031 169.832031 C 356.832031 169.015625 357.726562 168.222656 358.640625 167.453125 C 359.554688 166.683594 360.492188 165.941406 361.445312 165.21875 C 362.398438 164.5 363.371094 163.804688 364.359375 163.132812 C 365.347656 162.464844 366.355469 161.820312 367.378906 161.199219 C 368.402344 160.582031 369.441406 159.992188 370.496094 159.429688 C 371.546875 158.863281 372.617188 158.328125 373.699219 157.820312 C 374.78125 157.3125 375.875 156.832031 376.980469 156.378906 C 378.089844 155.929688 379.207031 155.507812 380.335938 155.113281 C 381.464844 154.71875 382.601562 154.355469 383.75 154.023438 C 384.898438 153.6875 386.050781 153.382812 387.214844 153.109375 C 388.378906 152.835938 389.550781 152.59375 390.726562 152.378906 C 391.902344 152.164062 393.082031 151.984375 394.269531 151.832031 C 395.453125 151.679688 396.644531 151.558594 397.835938 151.46875 C 399.027344 151.378906 400.21875 151.320312 401.414062 151.292969 C 402.609375 151.265625 403.804688 151.269531 405 151.300781 C 406.195312 151.269531 407.390625 151.265625 408.585938 151.292969 C 409.78125 151.320312 410.972656 151.378906 412.164062 151.46875 C 413.355469 151.558594 414.546875 151.679688 415.730469 151.832031 C 416.917969 151.984375 418.097656 152.164062 419.273438 152.378906 C 420.449219 152.59375 421.621094 152.835938 422.785156 153.109375 C 423.949219 153.382812 425.101562 153.6875 426.25 154.023438 C 427.398438 154.355469 428.535156 154.71875 429.664062 155.113281 C 430.792969 155.507812 431.914062 155.929688 433.019531 156.378906 C 434.125 156.832031 435.21875 157.3125 436.300781 157.820312 C 437.382812 158.328125 438.453125 158.863281 439.503906 159.429688 C 440.558594 159.992188 441.597656 160.582031 442.621094 161.199219 C 443.644531 161.820312 444.652344 162.464844 445.640625 163.132812 C 446.628906 163.804688 447.601562 164.5 448.554688 165.21875 C 449.507812 165.941406 450.445312 166.683594 451.359375 167.453125 C 452.273438 168.222656 453.167969 169.015625 454.042969 169.832031 C 454.914062 170.648438 455.765625 171.488281 456.597656 172.347656 C 457.425781 173.207031 458.234375 174.089844 459.019531 174.988281 C 459.800781 175.890625 460.5625 176.8125 461.300781 177.753906 C 462.035156 178.699219 462.746094 179.65625 463.433594 180.636719 C 464.121094 181.613281 464.78125 182.609375 465.414062 183.625 C 466.050781 184.636719 466.65625 185.664062 467.238281 186.710938 C 467.820312 187.753906 468.371094 188.8125 468.898438 189.886719 C 469.425781 190.960938 469.921875 192.046875 470.390625 193.144531 C 470.859375 194.246094 471.300781 195.355469 471.714844 196.476562 C 472.125 197.601562 472.507812 198.734375 472.859375 199.875 C 473.214844 201.015625 473.535156 202.167969 473.828125 203.328125 C 474.121094 204.484375 474.386719 205.652344 474.617188 206.824219 C 474.851562 207.996094 475.050781 209.171875 475.222656 210.355469 C 475.394531 211.539062 475.535156 212.726562 475.644531 213.917969 C 475.753906 215.105469 475.832031 216.300781 475.878906 217.492188 C 475.925781 218.6875 475.941406 219.882812 475.929688 221.078125 C 475.914062 222.273438 475.867188 223.46875 475.789062 224.660156 C 475.789062 270.753906 444.003906 308.410156 405 308.410156 Z M 405 163.527344 C 404.003906 163.492188 403.007812 163.484375 402.015625 163.5 C 401.019531 163.519531 400.023438 163.5625 399.03125 163.632812 C 398.039062 163.699219 397.046875 163.796875 396.058594 163.917969 C 395.070312 164.039062 394.085938 164.1875 393.105469 164.359375 C 392.125 164.535156 391.148438 164.734375 390.179688 164.957031 C 389.210938 165.183594 388.246094 165.433594 387.289062 165.710938 C 386.332031 165.984375 385.382812 166.285156 384.445312 166.609375 C 383.503906 166.9375 382.570312 167.285156 381.648438 167.660156 C 380.726562 168.035156 379.8125 168.433594 378.914062 168.855469 C 378.011719 169.28125 377.121094 169.726562 376.242188 170.195312 C 375.363281 170.664062 374.5 171.15625 373.648438 171.671875 C 372.796875 172.1875 371.957031 172.722656 371.132812 173.28125 C 370.308594 173.84375 369.5 174.421875 368.707031 175.023438 C 367.914062 175.625 367.136719 176.246094 366.378906 176.890625 C 365.617188 177.535156 364.875 178.195312 364.148438 178.878906 C 363.421875 179.558594 362.714844 180.257812 362.027344 180.976562 C 361.335938 181.695312 360.667969 182.433594 360.019531 183.1875 C 359.367188 183.941406 358.738281 184.714844 358.128906 185.5 C 357.519531 186.289062 356.929688 187.089844 356.363281 187.910156 C 355.796875 188.726562 355.253906 189.558594 354.730469 190.40625 C 354.207031 191.253906 353.703125 192.113281 353.226562 192.988281 C 352.75 193.859375 352.292969 194.746094 351.863281 195.644531 C 351.429688 196.542969 351.023438 197.449219 350.640625 198.367188 C 350.257812 199.289062 349.898438 200.214844 349.5625 201.152344 C 349.226562 202.089844 348.917969 203.035156 348.632812 203.992188 C 348.347656 204.945312 348.089844 205.90625 347.855469 206.875 C 347.621094 207.839844 347.410156 208.8125 347.230469 209.792969 C 347.046875 210.773438 346.886719 211.753906 346.757812 212.742188 C 346.625 213.726562 346.519531 214.71875 346.441406 215.710938 C 346.363281 216.703125 346.308594 217.695312 346.28125 218.691406 C 346.253906 219.6875 346.253906 220.683594 346.28125 221.679688 C 346.304688 222.671875 346.359375 223.667969 346.433594 224.660156 C 346.433594 264.03125 372.722656 296.183594 405 296.183594 C 437.277344 296.183594 463.566406 263.785156 463.566406 224.660156 C 463.640625 223.667969 463.695312 222.671875 463.71875 221.679688 C 463.746094 220.683594 463.746094 219.6875 463.71875 218.691406 C 463.691406 217.695312 463.636719 216.703125 463.558594 215.710938 C 463.480469 214.71875 463.375 213.726562 463.242188 212.742188 C 463.113281 211.753906 462.953125 210.773438 462.769531 209.792969 C 462.589844 208.8125 462.378906 207.839844 462.144531 206.875 C 461.910156 205.90625 461.652344 204.945312 461.367188 203.992188 C 461.082031 203.035156 460.773438 202.089844 460.4375 201.152344 C 460.101562 200.214844 459.742188 199.289062 459.359375 198.367188 C 458.976562 197.449219 458.570312 196.542969 458.136719 195.644531 C 457.707031 194.746094 457.25 193.863281 456.773438 192.988281 C 456.296875 192.113281 455.792969 191.253906 455.269531 190.40625 C 454.746094 189.558594 454.203125 188.726562 453.636719 187.910156 C 453.066406 187.089844 452.480469 186.289062 451.871094 185.5 C 451.261719 184.714844 450.632812 183.941406 449.980469 183.1875 C 449.332031 182.433594 448.664062 181.695312 447.972656 180.976562 C 447.285156 180.257812 446.578125 179.558594 445.851562 178.878906 C 445.125 178.195312 444.382812 177.535156 443.621094 176.890625 C 442.863281 176.246094 442.085938 175.625 441.292969 175.023438 C 440.5 174.421875 439.691406 173.84375 438.867188 173.28125 C 438.042969 172.722656 437.203125 172.1875 436.351562 171.671875 C 435.5 171.15625 434.636719 170.664062 433.757812 170.195312 C 432.878906 169.726562 431.988281 169.28125 431.085938 168.855469 C 430.1875 168.433594 429.273438 168.035156 428.351562 167.660156 C 427.429688 167.285156 426.496094 166.9375 425.554688 166.609375 C 424.617188 166.285156 423.667969 165.984375 422.710938 165.710938 C 421.753906 165.433594 420.789062 165.183594 419.820312 164.957031 C 418.851562 164.734375 417.875 164.535156 416.894531 164.359375 C 415.914062 164.1875 414.929688 164.039062 413.941406 163.917969 C 412.953125 163.796875 411.960938 163.699219 410.96875 163.632812 C 409.976562 163.5625 408.980469 163.519531 407.984375 163.5 C 406.992188 163.484375 405.996094 163.492188 405 163.527344 Z M 405 163.527344 " fill-opacity="1" fill-rule="nonzero"/><path fill="#faf7f7" d="M 469.679688 230.773438 C 469.089844 230.765625 468.515625 230.679688 467.953125 230.511719 C 467.390625 230.347656 466.863281 230.105469 466.367188 229.792969 C 465.867188 229.480469 465.425781 229.105469 465.03125 228.671875 C 464.640625 228.234375 464.3125 227.753906 464.054688 227.226562 C 463.246094 225.417969 462.335938 223.660156 461.320312 221.957031 C 460.304688 220.253906 459.191406 218.617188 457.980469 217.046875 C 456.769531 215.476562 455.46875 213.984375 454.082031 212.570312 C 452.691406 211.15625 451.222656 209.828125 449.675781 208.589844 C 448.128906 207.347656 446.515625 206.207031 444.832031 205.160156 C 443.148438 204.109375 441.40625 203.167969 439.609375 202.328125 C 437.816406 201.488281 435.976562 200.757812 434.09375 200.136719 C 432.210938 199.515625 430.296875 199.011719 428.351562 198.617188 C 427.164062 199.957031 425.882812 201.199219 424.511719 202.351562 C 423.140625 203.5 421.691406 204.546875 420.167969 205.484375 C 418.644531 206.421875 417.058594 207.246094 415.414062 207.953125 C 413.769531 208.65625 412.082031 209.242188 410.355469 209.699219 C 408.625 210.160156 406.871094 210.492188 405.089844 210.695312 C 403.3125 210.898438 401.527344 210.96875 399.738281 210.910156 C 397.949219 210.851562 396.175781 210.664062 394.414062 210.34375 C 392.652344 210.027344 390.925781 209.582031 389.226562 209.011719 C 387.164062 208.546875 385.078125 208.246094 382.96875 208.109375 C 380.859375 207.972656 378.753906 208 376.648438 208.195312 C 374.542969 208.390625 372.464844 208.746094 370.417969 209.269531 C 368.367188 209.789062 366.371094 210.46875 364.429688 211.304688 C 362.488281 212.136719 360.621094 213.117188 358.835938 214.246094 C 357.046875 215.375 355.359375 216.636719 353.769531 218.027344 C 352.179688 219.421875 350.707031 220.929688 349.355469 222.554688 C 348 224.179688 346.785156 225.902344 345.703125 227.71875 C 345.5 228.066406 345.269531 228.390625 345.003906 228.695312 C 344.738281 228.996094 344.445312 229.273438 344.125 229.519531 C 343.808594 229.761719 343.46875 229.976562 343.105469 230.152344 C 342.746094 230.332031 342.371094 230.472656 341.984375 230.578125 C 341.59375 230.683594 341.199219 230.75 340.796875 230.777344 C 340.394531 230.804688 339.996094 230.792969 339.597656 230.738281 C 339.195312 230.6875 338.804688 230.597656 338.425781 230.46875 C 338.042969 230.339844 337.679688 230.175781 337.328125 229.976562 C 336.980469 229.773438 336.652344 229.542969 336.351562 229.277344 C 336.046875 229.011719 335.773438 228.71875 335.527344 228.402344 C 335.28125 228.082031 335.070312 227.742188 334.890625 227.382812 C 334.710938 227.019531 334.570312 226.648438 334.464844 226.257812 C 334.359375 225.871094 334.292969 225.472656 334.265625 225.074219 C 334.238281 224.671875 334.25 224.269531 334.300781 223.871094 C 334.351562 223.472656 334.441406 223.082031 334.570312 222.699219 C 334.699219 222.316406 334.863281 221.953125 335.066406 221.605469 C 335.765625 220.410156 336.515625 219.242188 337.308594 218.105469 C 338.101562 216.972656 338.941406 215.867188 339.824219 214.796875 C 340.703125 213.730469 341.628906 212.695312 342.59375 211.699219 C 343.554688 210.703125 344.558594 209.75 345.597656 208.832031 C 346.636719 207.914062 347.710938 207.042969 348.820312 206.210938 C 349.929688 205.378906 351.070312 204.59375 352.242188 203.855469 C 353.414062 203.113281 354.613281 202.421875 355.839844 201.777344 C 357.070312 201.128906 358.320312 200.535156 359.59375 199.988281 C 360.867188 199.445312 362.160156 198.949219 363.472656 198.507812 C 364.789062 198.0625 366.117188 197.675781 367.460938 197.335938 C 368.804688 197 370.160156 196.714844 371.527344 196.488281 C 372.894531 196.257812 374.269531 196.082031 375.648438 195.960938 C 377.03125 195.839844 378.414062 195.777344 379.800781 195.765625 C 381.1875 195.753906 382.570312 195.800781 383.953125 195.898438 C 385.335938 196 386.710938 196.152344 388.082031 196.363281 C 389.453125 196.570312 390.8125 196.832031 392.164062 197.152344 C 412.703125 202.042969 419.183594 190.671875 419.917969 189.324219 C 420.1875 188.789062 420.53125 188.296875 420.941406 187.859375 C 421.355469 187.421875 421.824219 187.046875 422.34375 186.746094 C 422.863281 186.441406 423.417969 186.21875 424.003906 186.074219 C 424.589844 185.929688 425.183594 185.875 425.785156 185.902344 C 428.429688 186.25 431.039062 186.761719 433.617188 187.445312 C 436.195312 188.125 438.71875 188.96875 441.1875 189.972656 C 443.65625 190.980469 446.050781 192.140625 448.371094 193.453125 C 450.691406 194.765625 452.917969 196.222656 455.050781 197.824219 C 457.183594 199.421875 459.207031 201.152344 461.117188 203.011719 C 463.027344 204.871094 464.8125 206.847656 466.46875 208.933594 C 468.125 211.023438 469.640625 213.210938 471.019531 215.496094 C 472.394531 217.777344 473.617188 220.140625 474.691406 222.582031 C 474.863281 222.941406 475 223.316406 475.101562 223.703125 C 475.199219 224.089844 475.257812 224.484375 475.28125 224.886719 C 475.300781 225.285156 475.28125 225.683594 475.222656 226.078125 C 475.160156 226.472656 475.0625 226.859375 474.925781 227.234375 C 474.789062 227.613281 474.617188 227.972656 474.410156 228.3125 C 474.199219 228.652344 473.960938 228.972656 473.6875 229.265625 C 473.414062 229.558594 473.117188 229.820312 472.792969 230.054688 C 472.464844 230.289062 472.121094 230.488281 471.757812 230.652344 C 471.070312 230.839844 470.378906 230.878906 469.679688 230.773438 Z M 469.679688 230.773438 " fill-opacity="1" fill-rule="nonzero"/><path fill="#faf7f7" d="M 405 422.726562 C 404.597656 422.726562 404.199219 422.6875 403.808594 422.609375 C 403.414062 422.53125 403.03125 422.417969 402.660156 422.261719 C 402.289062 422.109375 401.9375 421.921875 401.605469 421.699219 C 401.269531 421.476562 400.960938 421.222656 400.675781 420.9375 C 400.394531 420.652344 400.140625 420.34375 399.917969 420.011719 C 399.695312 419.675781 399.503906 419.324219 399.351562 418.953125 C 399.199219 418.582031 399.082031 418.203125 399.003906 417.808594 C 398.925781 417.414062 398.886719 417.015625 398.886719 416.613281 L 398.886719 360.007812 C 398.886719 359.605469 398.925781 359.207031 399.003906 358.8125 C 399.082031 358.421875 399.199219 358.039062 399.351562 357.667969 C 399.503906 357.296875 399.695312 356.945312 399.917969 356.609375 C 400.140625 356.277344 400.394531 355.96875 400.675781 355.683594 C 400.960938 355.398438 401.269531 355.148438 401.605469 354.925781 C 401.9375 354.699219 402.289062 354.511719 402.660156 354.359375 C 403.03125 354.207031 403.414062 354.089844 403.808594 354.011719 C 404.199219 353.933594 404.597656 353.894531 405 353.894531 C 405.402344 353.894531 405.800781 353.933594 406.191406 354.011719 C 406.585938 354.089844 406.96875 354.207031 407.339844 354.359375 C 407.710938 354.511719 408.0625 354.699219 408.394531 354.925781 C 408.730469 355.148438 409.039062 355.398438 409.324219 355.683594 C 409.605469 355.96875 409.859375 356.277344 410.082031 356.609375 C 410.304688 356.945312 410.496094 357.296875 410.648438 357.667969 C 410.800781 358.039062 410.917969 358.421875 410.996094 358.8125 C 411.074219 359.207031 411.113281 359.605469 411.113281 360.007812 L 411.113281 416.613281 C 411.113281 417.015625 411.074219 417.414062 410.996094 417.808594 C 410.917969 418.203125 410.800781 418.582031 410.648438 418.953125 C 410.496094 419.324219 410.304688 419.675781 410.082031 420.011719 C 409.859375 420.34375 409.605469 420.652344 409.324219 420.9375 C 409.039062 421.222656 408.730469 421.476562 408.394531 421.699219 C 408.0625 421.921875 407.710938 422.109375 407.339844 422.261719 C 406.96875 422.417969 406.585938 422.53125 406.191406 422.609375 C 405.800781 422.6875 405.402344 422.726562 405 422.726562 Z M 405 422.726562 " fill-opacity="1" fill-rule="nonzero"/><path fill="#faf7f7" d="M 405 728.390625 C 404.144531 728.378906 403.324219 728.207031 402.539062 727.867188 C 401.757812 727.527344 401.066406 727.050781 400.476562 726.433594 L 229.304688 543.035156 C 228.902344 542.597656 228.566406 542.113281 228.304688 541.578125 C 228.039062 541.042969 227.859375 540.480469 227.761719 539.890625 C 227.660156 539.304688 227.648438 538.714844 227.722656 538.121094 C 227.796875 537.53125 227.953125 536.960938 228.195312 536.414062 C 228.433594 535.867188 228.75 535.367188 229.136719 534.914062 C 229.523438 534.460938 229.964844 534.070312 230.464844 533.746094 C 230.96875 533.421875 231.503906 533.175781 232.078125 533.011719 C 232.648438 532.84375 233.234375 532.761719 233.832031 532.765625 L 576.167969 532.765625 C 576.765625 532.761719 577.351562 532.84375 577.921875 533.011719 C 578.496094 533.175781 579.03125 533.421875 579.535156 533.746094 C 580.035156 534.070312 580.476562 534.460938 580.863281 534.914062 C 581.25 535.367188 581.566406 535.867188 581.804688 536.414062 C 582.046875 536.960938 582.203125 537.53125 582.277344 538.121094 C 582.351562 538.714844 582.339844 539.304688 582.238281 539.890625 C 582.140625 540.480469 581.960938 541.042969 581.695312 541.578125 C 581.433594 542.113281 581.097656 542.597656 580.695312 543.035156 L 409.523438 726.433594 C 408.933594 727.050781 408.242188 727.527344 407.460938 727.867188 C 406.675781 728.207031 405.855469 728.378906 405 728.390625 Z M 247.890625 544.992188 L 405 713.351562 L 562.109375 544.992188 Z M 247.890625 544.992188 " fill-opacity="1" fill-rule="nonzero"/><path fill="#faf7f7" d="M 405 728.390625 C 404.371094 728.386719 403.757812 728.292969 403.160156 728.105469 C 402.558594 727.914062 402.003906 727.640625 401.488281 727.277344 C 400.976562 726.917969 400.527344 726.488281 400.144531 725.988281 C 399.765625 725.488281 399.46875 724.945312 399.253906 724.355469 L 332.742188 540.957031 C 332.371094 540.019531 332.253906 539.050781 332.382812 538.050781 C 332.515625 537.050781 332.878906 536.144531 333.476562 535.332031 C 334.046875 534.515625 334.773438 533.878906 335.660156 533.425781 C 336.550781 532.96875 337.492188 532.75 338.488281 532.765625 L 471.511719 532.765625 C 472.507812 532.75 473.449219 532.96875 474.339844 533.425781 C 475.226562 533.878906 475.953125 534.515625 476.523438 535.332031 C 477.121094 536.144531 477.484375 537.050781 477.617188 538.050781 C 477.746094 539.050781 477.628906 540.019531 477.257812 540.957031 L 411.113281 724.355469 C 410.890625 724.976562 410.574219 725.546875 410.167969 726.0625 C 409.757812 726.582031 409.277344 727.023438 408.726562 727.386719 C 408.175781 727.75 407.582031 728.019531 406.945312 728.191406 C 406.308594 728.363281 405.660156 728.425781 405 728.390625 Z M 347.167969 544.992188 L 405 703.9375 L 462.832031 544.992188 Z M 347.167969 544.992188 " fill-opacity="1" fill-rule="nonzero"/><path fill="#faf7f7" d="M 576.167969 544.992188 L 233.832031 544.992188 C 233.210938 544.996094 232.605469 544.910156 232.011719 544.730469 C 231.421875 544.550781 230.867188 544.289062 230.355469 543.941406 C 229.84375 543.59375 229.394531 543.179688 229.007812 542.695312 C 228.621094 542.210938 228.316406 541.679688 228.089844 541.105469 C 227.867188 540.527344 227.730469 539.929688 227.6875 539.3125 C 227.644531 538.695312 227.691406 538.085938 227.832031 537.484375 C 227.972656 536.882812 228.203125 536.3125 228.515625 535.78125 C 228.828125 535.246094 229.214844 534.773438 229.671875 534.355469 L 296.308594 473.222656 C 297.457031 472.195312 298.800781 471.664062 300.34375 471.632812 L 509.65625 471.632812 C 511.199219 471.664062 512.542969 472.195312 513.691406 473.222656 L 580.328125 534.355469 C 580.785156 534.773438 581.171875 535.246094 581.484375 535.78125 C 581.796875 536.3125 582.027344 536.882812 582.167969 537.484375 C 582.308594 538.085938 582.355469 538.695312 582.3125 539.3125 C 582.269531 539.929688 582.132812 540.527344 581.910156 541.105469 C 581.683594 541.679688 581.378906 542.210938 580.992188 542.695312 C 580.605469 543.179688 580.15625 543.59375 579.644531 543.941406 C 579.132812 544.289062 578.578125 544.550781 577.988281 544.730469 C 577.394531 544.910156 576.789062 544.996094 576.167969 544.992188 Z M 249.480469 532.765625 L 560.519531 532.765625 L 507.210938 483.859375 L 302.789062 483.859375 Z M 249.480469 532.765625 " fill-opacity="1" fill-rule="nonzero"/><path fill="#faf7f7" d="M 471.511719 544.992188 L 338.488281 544.992188 C 337.867188 544.996094 337.261719 544.910156 336.664062 544.726562 C 336.070312 544.546875 335.519531 544.28125 335.003906 543.933594 C 334.492188 543.582031 334.042969 543.164062 333.65625 542.679688 C 333.269531 542.191406 332.964844 541.660156 332.742188 541.078125 C 332.527344 540.503906 332.402344 539.910156 332.363281 539.296875 C 332.328125 538.679688 332.378906 538.074219 332.519531 537.476562 C 332.660156 536.878906 332.886719 536.3125 333.195312 535.78125 C 333.503906 535.25 333.882812 534.773438 334.332031 534.355469 L 400.84375 473.222656 C 401.128906 472.976562 401.4375 472.753906 401.761719 472.5625 C 402.085938 472.371094 402.425781 472.207031 402.78125 472.074219 C 403.136719 471.945312 403.5 471.84375 403.875 471.777344 C 404.246094 471.710938 404.621094 471.675781 405 471.675781 C 405.378906 471.675781 405.753906 471.710938 406.125 471.777344 C 406.5 471.84375 406.863281 471.945312 407.21875 472.074219 C 407.574219 472.207031 407.914062 472.371094 408.238281 472.5625 C 408.5625 472.753906 408.871094 472.976562 409.15625 473.222656 L 475.667969 534.355469 C 476.117188 534.773438 476.496094 535.25 476.804688 535.78125 C 477.113281 536.3125 477.339844 536.878906 477.480469 537.476562 C 477.621094 538.074219 477.671875 538.679688 477.636719 539.296875 C 477.597656 539.910156 477.472656 540.503906 477.257812 541.078125 C 477.035156 541.660156 476.730469 542.191406 476.34375 542.679688 C 475.957031 543.164062 475.507812 543.582031 474.996094 543.933594 C 474.480469 544.28125 473.929688 544.546875 473.335938 544.726562 C 472.738281 544.910156 472.132812 544.996094 471.511719 544.992188 Z M 354.136719 532.765625 L 455.863281 532.765625 L 405 486.0625 Z M 354.136719 532.765625 " fill-opacity="1" fill-rule="nonzero"/><path fill="#faf7f7" d="M 471.511719 544.992188 C 470.339844 545.027344 469.28125 544.703125 468.332031 544.015625 C 467.992188 543.808594 467.675781 543.570312 467.386719 543.300781 C 467.09375 543.03125 466.828125 542.734375 466.597656 542.414062 C 466.363281 542.09375 466.164062 541.75 465.996094 541.390625 C 465.832031 541.027344 465.703125 540.652344 465.613281 540.265625 C 465.523438 539.878906 465.46875 539.488281 465.457031 539.089844 C 465.445312 538.695312 465.46875 538.300781 465.535156 537.90625 C 465.601562 537.515625 465.703125 537.132812 465.847656 536.761719 C 465.988281 536.390625 466.164062 536.035156 466.375 535.699219 L 504.402344 474.566406 C 504.605469 474.21875 504.847656 473.894531 505.117188 473.597656 C 505.390625 473.296875 505.691406 473.027344 506.015625 472.789062 C 506.34375 472.550781 506.691406 472.347656 507.058594 472.175781 C 507.425781 472.007812 507.808594 471.878906 508.199219 471.789062 C 508.59375 471.695312 508.996094 471.644531 509.398438 471.632812 C 509.804688 471.625 510.203125 471.652344 510.601562 471.726562 C 511 471.796875 511.390625 471.90625 511.765625 472.054688 C 512.140625 472.203125 512.5 472.390625 512.835938 472.613281 C 513.175781 472.820312 513.492188 473.054688 513.785156 473.324219 C 514.078125 473.59375 514.339844 473.890625 514.574219 474.210938 C 514.808594 474.535156 515.007812 474.875 515.171875 475.238281 C 515.335938 475.597656 515.464844 475.972656 515.558594 476.359375 C 515.648438 476.746094 515.699219 477.136719 515.710938 477.535156 C 515.726562 477.933594 515.699219 478.328125 515.632812 478.71875 C 515.570312 479.113281 515.464844 479.492188 515.324219 479.863281 C 515.183594 480.234375 515.003906 480.589844 514.792969 480.925781 L 476.769531 542.058594 C 476.210938 542.976562 475.464844 543.695312 474.527344 544.21875 C 473.589844 544.742188 472.585938 545 471.511719 544.992188 Z M 471.511719 544.992188 " fill-opacity="1" fill-rule="nonzero"/><path fill="#faf7f7" d="M 338.488281 544.992188 C 337.414062 545 336.410156 544.742188 335.472656 544.21875 C 334.535156 543.695312 333.789062 542.976562 333.230469 542.058594 L 295.207031 480.925781 C 294.996094 480.589844 294.816406 480.234375 294.675781 479.863281 C 294.535156 479.492188 294.429688 479.113281 294.367188 478.71875 C 294.300781 478.328125 294.273438 477.933594 294.289062 477.535156 C 294.300781 477.136719 294.351562 476.746094 294.441406 476.359375 C 294.535156 475.972656 294.664062 475.597656 294.828125 475.238281 C 294.992188 474.875 295.191406 474.535156 295.425781 474.210938 C 295.660156 473.890625 295.921875 473.59375 296.214844 473.324219 C 296.507812 473.054688 296.824219 472.820312 297.164062 472.613281 C 297.5 472.390625 297.859375 472.203125 298.234375 472.054688 C 298.609375 471.90625 299 471.796875 299.398438 471.726562 C 299.796875 471.652344 300.195312 471.625 300.601562 471.632812 C 301.003906 471.644531 301.40625 471.695312 301.800781 471.789062 C 302.191406 471.878906 302.574219 472.007812 302.941406 472.175781 C 303.308594 472.347656 303.65625 472.550781 303.984375 472.789062 C 304.308594 473.027344 304.609375 473.296875 304.882812 473.597656 C 305.152344 473.894531 305.394531 474.21875 305.597656 474.566406 L 343.625 535.699219 C 343.835938 536.035156 344.011719 536.390625 344.152344 536.761719 C 344.296875 537.132812 344.398438 537.515625 344.464844 537.90625 C 344.53125 538.300781 344.554688 538.695312 344.542969 539.089844 C 344.53125 539.488281 344.476562 539.878906 344.386719 540.265625 C 344.296875 540.652344 344.167969 541.027344 344.003906 541.390625 C 343.835938 541.75 343.636719 542.09375 343.402344 542.414062 C 343.171875 542.734375 342.90625 543.03125 342.613281 543.300781 C 342.324219 543.570312 342.007812 543.808594 341.667969 544.015625 C 340.71875 544.703125 339.660156 545.027344 338.488281 544.992188 Z M 338.488281 544.992188 " fill-opacity="1" fill-rule="nonzero"/></svg>