<svg xmlns="http://www.w3.org/2000/svg" xmlns:xlink="http://www.w3.org/1999/xlink" width="1080" zoomAndPan="magnify" viewBox="0 0 810 809.999993" height="1080" preserveAspectRatio="xMidYMid meet" version="1.0"><path fill="#faf7f7" d="M 272.203125 119.3125 C 198.734375 153.292969 144.28125 212.101562 114.527344 281.527344 C 116.21875 281.261719 117.960938 281.273438 119.664062 281.949219 L 219.355469 321.566406 C 219.519531 321.628906 219.621094 321.761719 219.777344 321.835938 C 238.730469 280.128906 271.683594 244.75 315.628906 223.285156 C 315.542969 223.109375 315.34375 223.039062 315.265625 222.859375 L 272.789062 124.355469 C 272.074219 122.699219 272.003906 120.988281 272.203125 119.3125 Z M 228.617188 257.035156 C 220.234375 260.015625 214.722656 247.511719 223.789062 244.425781 C 232.886719 241.398438 242.578125 232.542969 235.820312 225.789062 C 231.121094 221.097656 225.054688 223.953125 221.652344 229.757812 C 220.054688 232.480469 220.472656 233.972656 219.019531 237.125 C 217.84375 239.558594 215.265625 242.28125 212.578125 242.332031 C 208.894531 242.457031 207.78125 239.136719 189.105469 221.078125 C 185.957031 217.929688 186.003906 214.375 189.164062 211.210938 L 209.152344 191.226562 C 215.164062 185.199219 221.105469 192.078125 221.085938 195.835938 C 221.011719 199.917969 217.21875 201.503906 204.699219 214.65625 L 212.894531 222.851562 C 213.109375 222.09375 213 221.328125 213.351562 220.566406 C 216.96875 212.550781 226.75 205.6875 237.265625 208.605469 C 243.835938 210.414062 250.765625 216.898438 252.511719 224.546875 C 255.921875 239.105469 241.511719 253.082031 228.617188 257.035156 Z M 228.617188 257.035156 " fill-opacity="1" fill-rule="nonzero"/><path fill="#faf7f7" d="M 108.332031 297.101562 C 82.292969 367.976562 81.488281 448.097656 111.625 523.3125 C 112.632812 521.949219 113.863281 520.738281 115.53125 520.023438 L 214.035156 477.558594 C 214.199219 477.488281 214.371094 477.511719 214.535156 477.453125 C 197.304688 431.722656 197.644531 383.390625 212.535156 340.035156 C 212.375 339.980469 212.214844 340.003906 212.058594 339.945312 L 112.363281 300.328125 C 110.65625 299.652344 109.378906 298.457031 108.332031 297.101562 Z M 144.855469 383.574219 C 158.3125 383.574219 170.9375 388.140625 176.089844 400.449219 C 181.164062 412.574219 176.632812 428.058594 171.726562 430.335938 C 168.019531 432.042969 163.347656 430.59375 162.050781 426.546875 C 161.074219 423.597656 163.160156 421.625 164.203125 417.054688 C 165.816406 410.1875 164.207031 403.316406 157.230469 400.535156 C 153.050781 398.886719 148.753906 399.203125 146.367188 399.0625 C 147.503906 399.5625 148.824219 399.847656 149.761719 400.585938 C 161.664062 409.914062 155.152344 431.636719 134.773438 431.636719 C 121.65625 431.636719 112.722656 421.992188 112.722656 409.683594 C 112.722656 391.640625 126.421875 383.574219 144.855469 383.574219 Z M 144.855469 383.574219 " fill-opacity="1" fill-rule="nonzero"/><path fill="#faf7f7" d="M 221.855469 495.710938 L 123.351562 538.179688 C 122.078125 538.726562 120.753906 538.988281 119.441406 538.988281 C 119.003906 538.988281 118.644531 538.679688 118.214844 538.621094 C 152.191406 612.257812 211.050781 666.773438 280.539062 696.507812 C 280.257812 694.792969 280.253906 693.03125 280.9375 691.300781 L 320.554688 591.621094 C 320.625 591.445312 320.769531 591.335938 320.847656 591.171875 C 279.140625 572.234375 243.769531 539.316406 222.289062 495.40625 C 222.128906 495.488281 222.027344 495.632812 221.855469 495.710938 Z M 232.148438 554.96875 C 252.9375 576.46875 256.984375 577.972656 256.9375 582.300781 C 256.859375 586.488281 250.859375 592.703125 245.070312 586.851562 L 239.449219 581.25 L 216.714844 603.980469 C 221.449219 605.335938 228.125 605.238281 228.035156 611.453125 C 227.972656 615.824219 224.085938 619.625 218.96875 618.164062 C 205.511719 614.910156 201.125 614.953125 196.828125 610.664062 C 195.21875 609.046875 194.367188 607.347656 194.300781 605.582031 C 194.148438 600.988281 196.765625 601.25 227.6875 569.472656 C 223.722656 565.078125 216.523438 560.914062 222.535156 554.910156 C 224.058594 553.386719 228.894531 551.753906 232.148438 554.96875 Z M 232.148438 554.96875 " fill-opacity="1" fill-rule="nonzero"/><path fill="#faf7f7" d="M 529.4375 115.5 C 529.710938 117.199219 529.707031 118.953125 529.027344 120.671875 L 489.402344 220.355469 C 489.335938 220.523438 489.15625 220.585938 489.078125 220.75 C 530.820312 239.6875 566.210938 272.628906 587.679688 316.558594 C 587.84375 316.480469 587.945312 316.332031 588.113281 316.265625 L 686.617188 273.800781 C 688.324219 273.054688 690.09375 273.003906 691.8125 273.238281 C 657.742188 199.683594 598.886719 145.230469 529.4375 115.5 Z M 610.820312 220.671875 C 610.183594 218.839844 609.429688 217.273438 608.5625 215.941406 C 602.617188 206.707031 594.109375 204.953125 584.355469 214.695312 L 583.183594 215.863281 C 584.363281 215.410156 585.550781 214.667969 586.722656 214.53125 C 597.414062 213.214844 608.109375 224.320312 603.90625 237.761719 C 599.417969 252.238281 580.3125 260.558594 566.90625 247.148438 C 554.058594 234.3125 558.285156 218.847656 571.167969 205.964844 C 585.121094 192.023438 601.707031 189.15625 615.464844 202.917969 C 619.054688 206.503906 621.785156 210.996094 623.171875 215.96875 C 625.835938 222.824219 614.761719 229.578125 610.820312 220.671875 Z M 610.820312 220.671875 " fill-opacity="1" fill-rule="nonzero"/><path fill="#faf7f7" d="M 142.875 408.773438 C 142.875 399.835938 129.839844 398.960938 126.453125 404.679688 C 125.078125 407.015625 125.054688 410.488281 126.453125 412.863281 C 129.976562 418.835938 142.875 417.730469 142.875 408.773438 Z M 142.875 408.773438 " fill-opacity="1" fill-rule="nonzero"/><path fill="#faf7f7" d="M 576.011719 225.953125 C 568.871094 233.089844 576.144531 242.023438 583.011719 239.445312 C 585.875 238.355469 588.5625 235.53125 589.53125 232.929688 C 592.089844 225.925781 583.25 218.722656 576.011719 225.953125 Z M 576.011719 225.953125 " fill-opacity="1" fill-rule="nonzero"/><path fill="#faf7f7" d="M 537.179688 687.617188 C 537.886719 689.257812 537.960938 690.957031 537.769531 692.613281 C 611.363281 658.597656 665.832031 599.726562 695.554688 530.234375 C 694.992188 530.332031 694.519531 530.722656 693.945312 530.722656 C 690.347656 530.722656 694.941406 531.59375 590.613281 490.414062 C 590.476562 490.355469 590.390625 490.234375 590.257812 490.175781 C 571.417969 531.960938 538.410156 567.253906 494.421875 588.710938 C 494.496094 588.867188 494.636719 588.960938 494.703125 589.117188 Z M 571.621094 572.90625 L 573.957031 575.265625 L 586.75 562.46875 C 590.324219 558.898438 594.265625 558.015625 597.882812 561.628906 C 601.539062 565.28125 601.121094 568.429688 608.765625 608.910156 C 609.691406 613.480469 608.652344 616.539062 605.964844 619.222656 C 602.480469 622.714844 598.460938 622.28125 594.890625 618.710938 L 571.601562 595.425781 L 570.074219 596.949219 C 564.066406 602.953125 558.503906 596.578125 558.660156 592.855469 C 558.710938 591.261719 559.550781 589.667969 561.171875 588.046875 L 562.699219 586.523438 C 561.035156 584.546875 557.628906 582.542969 557.53125 578.4375 C 557.453125 573.132812 564.960938 566.25 571.621094 572.90625 Z M 571.621094 572.90625 " fill-opacity="1" fill-rule="nonzero"/><path fill="#faf7f7" d="M 694.4375 291.949219 L 595.933594 334.414062 C 595.761719 334.488281 595.585938 334.457031 595.414062 334.519531 C 612.558594 380.261719 612.179688 428.597656 597.445312 471.941406 C 597.601562 471.992188 597.757812 471.964844 597.910156 472.027344 C 702.917969 514.464844 698.164062 510.367188 701.644531 514.890625 C 727.703125 443.984375 728.511719 363.796875 698.414062 288.550781 C 697.402344 289.957031 696.148438 291.210938 694.4375 291.949219 Z M 696.15625 421.375 C 696.15625 428.257812 690.507812 430.777344 684.320312 428.257812 C 679.683594 426.382812 679.039062 425.609375 637.113281 403.09375 C 629.15625 398.886719 630.703125 387.335938 637.015625 386.632812 C 641.117188 386.152344 641.167969 387.84375 682.648438 410.1875 C 683.125 388.574219 681.484375 385.425781 684.40625 382.351562 C 687.425781 379.164062 696.15625 379.390625 696.15625 387.535156 Z M 696.15625 421.375 " fill-opacity="1" fill-rule="nonzero"/><path fill="#faf7f7" d="M 522.285156 699.292969 C 520.949219 698.296875 519.734375 697.074219 519.027344 695.4375 L 476.550781 596.941406 C 476.480469 596.777344 476.507812 596.613281 476.445312 596.449219 C 430.679688 613.621094 382.359375 613.265625 339.03125 598.398438 C 338.976562 598.570312 339.007812 598.746094 338.941406 598.917969 L 299.324219 698.605469 C 298.636719 700.320312 297.410156 701.613281 296.039062 702.667969 C 366.921875 728.683594 447.0625 729.449219 522.285156 699.292969 Z M 385.191406 679.6875 C 385.191406 665.792969 395.941406 658.164062 406.761719 647.113281 C 390.875 646.699219 386.570312 648.210938 383.742188 645.398438 C 382.613281 644.261719 382.03125 642.613281 382.03125 640.445312 C 382.03125 636.199219 384.253906 633.699219 388.878906 633.699219 C 418.339844 634.207031 422.914062 632.410156 425.917969 635.546875 C 428.105469 637.839844 428.15625 642.585938 426.59375 645.492188 C 423.695312 650.777344 406.527344 665.710938 402.867188 672.308594 C 398.476562 680.339844 403.636719 686.84375 414.707031 684.015625 C 419.09375 682.867188 421.160156 680.605469 424.246094 681.308594 C 428.246094 682.210938 430.398438 686.777344 428.574219 690.714844 C 424.429688 699.671875 385.191406 705.6875 385.191406 679.6875 Z M 385.191406 679.6875 " fill-opacity="1" fill-rule="nonzero"/><path fill="#faf7f7" d="M 287.675781 112.652344 C 289.027344 113.648438 290.226562 114.878906 290.941406 116.539062 L 333.417969 215.035156 C 333.492188 215.207031 333.464844 215.390625 333.53125 215.566406 C 379.3125 198.359375 427.621094 198.691406 470.929688 213.542969 C 470.984375 213.382812 470.953125 213.214844 471.019531 213.054688 L 510.644531 113.371094 C 511.328125 111.652344 512.535156 110.375 513.898438 109.328125 C 443.011719 83.300781 362.886719 82.519531 287.675781 112.652344 Z M 419.457031 142.964844 C 418.15625 143.996094 416.484375 144.59375 414.816406 145.183594 C 422.882812 147.238281 426.746094 152.8125 426.746094 160.609375 C 426.746094 180.683594 398.488281 182.792969 384.8125 175.722656 C 375.480469 171.648438 380.640625 159.316406 389.488281 163.125 C 397.695312 166.566406 411 167.890625 411 158.984375 C 411 151.683594 402.542969 153.117188 397.5 152.863281 C 389.039062 152.863281 389.410156 144.136719 392.277344 141.480469 C 394.757812 139.199219 398.578125 139.988281 400.832031 139.820312 C 405.324219 139.820312 409.105469 137.914062 409.105469 133.511719 C 409.105469 125.464844 397.296875 126.363281 389.941406 129.914062 C 382.042969 132.980469 376.722656 121.777344 385.171875 117.675781 C 394.515625 112.878906 406.789062 112.636719 414.417969 115.835938 C 427.632812 121.371094 427.238281 136.828125 419.457031 142.964844 Z M 419.457031 142.964844 " fill-opacity="1" fill-rule="nonzero"/><path fill="#faf7f7" d="M 591.214844 575.804688 L 582.859375 584.167969 L 595.199219 596.507812 Z M 591.214844 575.804688 " fill-opacity="1" fill-rule="nonzero"/><path fill="#faf7f7" d="M 473.300781 256.773438 C 470.78125 255.511719 468.257812 258.453125 469.730469 260.757812 C 481.910156 279.867188 491.570312 304.449219 497.871094 332.792969 C 498.710938 337 502.492188 340.355469 507.113281 340.355469 L 552.894531 340.355469 C 554.996094 340.355469 556.464844 338.046875 555.625 336.15625 C 538.402344 301.085938 509.210938 272.734375 473.300781 256.773438 Z M 473.300781 256.773438 " fill-opacity="1" fill-rule="nonzero"/><path fill="#faf7f7" d="M 434.65625 245.429688 C 434.238281 245.011719 433.605469 244.796875 433.1875 244.589844 C 426.675781 243.539062 419.957031 242.699219 413.234375 242.28125 L 413.234375 320.40625 C 428.367188 325.152344 431.570312 338.351562 432.976562 340.355469 L 470.148438 340.355469 C 476.449219 340.355469 481.070312 334.265625 479.601562 328.386719 C 469.9375 290.792969 453.769531 260.757812 434.65625 245.429688 Z M 434.65625 245.429688 " fill-opacity="1" fill-rule="nonzero"/><path fill="#faf7f7" d="M 476.871094 356.742188 L 441.167969 356.742188 L 441.375 357.367188 L 465.949219 360.9375 C 475.398438 362.410156 483.378906 368.289062 487.582031 376.476562 C 487.371094 372.703125 486.949219 368.921875 486.53125 365.140625 C 485.902344 360.3125 481.699219 356.742188 476.871094 356.742188 Z M 476.871094 356.742188 " fill-opacity="1" fill-rule="nonzero"/><path fill="#faf7f7" d="M 464.058594 426.882812 C 467.140625 449.003906 470.585938 454.023438 467.417969 464.054688 L 476.660156 464.054688 C 481.492188 464.054688 485.691406 460.699219 486.320312 455.863281 C 489.699219 432.207031 489.949219 406.515625 489.050781 397.480469 C 486.128906 407.710938 479.648438 410.46875 464.058594 426.882812 Z M 464.058594 426.882812 " fill-opacity="1" fill-rule="nonzero"/><path fill="#faf7f7" d="M 336.578125 256.773438 C 300.667969 272.734375 271.476562 300.875 254.464844 336.15625 C 253.414062 338.046875 254.882812 340.355469 256.984375 340.355469 L 302.765625 340.355469 C 307.175781 340.355469 310.957031 337 312.007812 332.792969 C 318.308594 304.449219 327.96875 280.085938 339.9375 260.972656 C 341.410156 258.664062 339.097656 255.722656 336.578125 256.773438 Z M 336.578125 256.773438 " fill-opacity="1" fill-rule="nonzero"/><path fill="#faf7f7" d="M 243.753906 363.671875 C 239.34375 378.371094 237.242188 393.910156 237.242188 409.875 C 237.242188 426.253906 239.550781 442.21875 244.171875 457.335938 C 245.222656 461.328125 249.214844 464.054688 253.414062 464.054688 L 296.886719 464.054688 C 302.765625 464.054688 306.96875 459.019531 306.335938 453.347656 C 303.1875 427.355469 302.851562 397.863281 306.128906 367.449219 C 306.96875 361.570312 302.558594 356.742188 296.886719 356.742188 L 252.992188 356.742188 C 248.792969 356.742188 244.804688 359.683594 243.753906 363.671875 Z M 243.753906 363.671875 " fill-opacity="1" fill-rule="nonzero"/><path fill="#faf7f7" d="M 302.976562 480.648438 L 257.402344 480.648438 C 255.304688 480.648438 254.042969 482.957031 254.882812 484.636719 C 272.105469 519.503906 301.085938 547.222656 336.578125 562.976562 C 339.097656 564.027344 341.410156 561.085938 339.9375 558.777344 C 327.96875 539.871094 318.519531 515.933594 312.21875 488.210938 C 311.167969 483.800781 307.386719 480.648438 302.976562 480.648438 Z M 302.976562 480.648438 " fill-opacity="1" fill-rule="nonzero"/><path fill="#faf7f7" d="M 375.222656 574.3125 C 375.640625 574.734375 376.0625 574.945312 376.691406 575.152344 C 383.203125 576.203125 389.710938 577.042969 396.644531 577.464844 L 396.644531 490.101562 C 396.644531 484.851562 392.445312 480.648438 386.984375 480.648438 C 369.96875 480.648438 357.34375 480.648438 339.9375 480.648438 C 333.847656 480.648438 329.019531 486.527344 330.488281 492.617188 C 340.359375 529.582031 356.320312 559.199219 375.222656 574.3125 Z M 375.222656 574.3125 " fill-opacity="1" fill-rule="nonzero"/><path fill="#faf7f7" d="M 323.558594 455.863281 C 324.1875 460.699219 328.386719 464.054688 333.011719 464.054688 L 342.667969 464.054688 C 339.507812 454.042969 342.96875 448.863281 346.03125 426.882812 C 332.199219 412.324219 323.964844 408.257812 320.828125 397.273438 C 319.925781 406.296875 320.160156 432.074219 323.558594 455.863281 Z M 323.558594 455.863281 " fill-opacity="1" fill-rule="nonzero"/><path fill="#faf7f7" d="M 368.503906 357.367188 L 368.710938 356.742188 L 332.800781 356.742188 C 327.96875 356.742188 323.980469 360.3125 323.347656 365.140625 C 322.71875 369.128906 322.300781 373.121094 322.089844 377.316406 C 326.078125 368.5 334.269531 362.410156 343.929688 360.9375 Z M 368.503906 357.367188 " fill-opacity="1" fill-rule="nonzero"/><path fill="#faf7f7" d="M 375.222656 245.429688 C 355.898438 260.757812 339.9375 290.792969 330.277344 328.386719 C 328.597656 334.265625 333.429688 340.355469 339.730469 340.355469 L 376.902344 340.355469 C 378.390625 338.265625 381.324219 325.441406 396.644531 320.617188 L 396.644531 242.28125 C 389.710938 242.699219 383.203125 243.539062 376.691406 244.589844 C 376.0625 244.796875 375.640625 245.011719 375.222656 245.429688 Z M 375.222656 245.429688 " fill-opacity="1" fill-rule="nonzero"/><path fill="#faf7f7" d="M 473.300781 562.976562 C 508.792969 547.222656 537.773438 519.503906 554.996094 484.636719 C 556.046875 482.957031 554.574219 480.648438 552.476562 480.648438 L 506.902344 480.648438 C 502.492188 480.648438 498.710938 483.800781 497.660156 488.210938 C 491.359375 515.933594 481.699219 540.082031 469.730469 558.980469 C 468.257812 561.296875 470.78125 564.234375 473.300781 562.976562 Z M 473.300781 562.976562 " fill-opacity="1" fill-rule="nonzero"/><path fill="#faf7f7" d="M 556.886719 356.742188 L 512.992188 356.742188 C 507.113281 356.742188 502.910156 361.570312 503.542969 367.449219 C 507.027344 395.78125 506.773438 426.664062 503.542969 453.347656 C 502.910156 459.019531 507.113281 464.054688 512.992188 464.054688 L 556.464844 464.054688 C 560.664062 464.054688 564.65625 461.328125 565.914062 457.335938 C 570.328125 442.21875 572.847656 426.253906 572.847656 409.875 C 572.847656 393.910156 570.535156 378.371094 566.335938 363.671875 C 565.078125 359.683594 561.296875 356.742188 556.886719 356.742188 Z M 556.886719 356.742188 " fill-opacity="1" fill-rule="nonzero"/><path fill="#faf7f7" d="M 422.683594 480.648438 C 417.433594 480.648438 413.234375 484.851562 413.234375 490.101562 L 413.234375 577.464844 C 419.957031 577.042969 426.675781 576.203125 433.1875 575.152344 C 433.605469 574.945312 434.238281 574.734375 434.65625 574.527344 C 453.558594 559.199219 469.519531 529.582031 479.179688 492.617188 C 480.859375 486.527344 476.03125 480.648438 469.9375 480.648438 C 465.613281 480.648438 420.695312 480.648438 422.683594 480.648438 Z M 422.683594 480.648438 " fill-opacity="1" fill-rule="nonzero"/><path fill="#faf7f7" d="M 489.050781 380.265625 C 488.628906 379 488 377.742188 487.582031 376.476562 C 488.421875 383.414062 489.050781 390.34375 489.050781 397.480469 C 490.941406 392.019531 490.941406 386.140625 489.050781 380.265625 Z M 489.050781 380.265625 " fill-opacity="1" fill-rule="nonzero"/><path fill="#faf7f7" d="M 397.730469 339.507812 C 396.757812 341.496094 381.546875 372.515625 382.519531 370.527344 C 381.335938 372.894531 378.964844 374.675781 376.199219 374.871094 L 342.019531 380.007812 C 335.5 380.800781 332.734375 389.097656 337.476562 393.835938 L 362.367188 418.136719 C 364.148438 419.917969 365.132812 422.679688 364.542969 425.25 L 358.613281 459.429688 C 357.625 466.148438 364.542969 471.085938 370.667969 467.921875 C 372.648438 466.867188 403.074219 450.664062 401.089844 451.722656 C 407.054688 448.976562 410.847656 453.304688 413.933594 454.488281 L 439.613281 467.921875 C 445.542969 471.085938 452.257812 466.148438 451.074219 459.429688 L 445.542969 425.25 C 444.949219 422.679688 445.738281 419.917969 447.714844 418.136719 L 472.410156 393.835938 C 477.347656 389.097656 474.78125 380.800781 468.0625 380.007812 L 433.886719 374.871094 C 431.121094 374.675781 428.75 372.894531 427.5625 370.527344 C 426.589844 368.539062 411.375 337.519531 412.351562 339.507812 C 409.386719 333.382812 400.695312 333.382812 397.730469 339.507812 Z M 397.730469 339.507812 " fill-opacity="1" fill-rule="nonzero"/></svg>