<svg xmlns="http://www.w3.org/2000/svg" xmlns:xlink="http://www.w3.org/1999/xlink" width="1080" zoomAndPan="magnify" viewBox="0 0 810 809.999993" height="1080" preserveAspectRatio="xMidYMid meet" version="1.0"><path fill="#faf7f7" d="M 255.945312 682.753906 C 248.332031 682.753906 245.523438 672.601562 252.140625 668.703125 L 253.046875 668.160156 C 289.480469 646.679688 311.597656 633.628906 349.574219 651.03125 C 409.121094 670.246094 450.722656 642.058594 498.851562 609.429688 L 499.757812 608.792969 C 565.015625 564.65625 578.609375 530.9375 581.511719 518.519531 C 585.316406 501.753906 565.285156 478.097656 545.527344 503.476562 C 526.3125 528.039062 493.050781 553.6875 472.292969 568.550781 C 475.011719 582.691406 463.867188 600.636719 433.773438 607.070312 C 374.953125 619.578125 331.808594 601.90625 329.996094 601.179688 C 326.191406 599.550781 324.378906 595.109375 326.007812 591.210938 C 327.640625 587.40625 331.992188 585.589844 335.886719 587.222656 C 336.25 587.40625 376.671875 603.808594 430.601562 592.296875 C 461.238281 585.683594 466.675781 565.109375 441.75 561.300781 C 425.074219 558.671875 405.316406 553.414062 384.378906 547.796875 C 335.253906 534.65625 274.253906 518.25 258.214844 543.535156 C 245.886719 562.933594 229.933594 572.722656 205.101562 586.589844 C 201.476562 588.582031 196.851562 587.3125 194.859375 583.6875 C 192.773438 580.0625 194.132812 575.441406 197.757812 573.355469 C 222.59375 559.578125 235.371094 551.332031 245.433594 535.46875 C 255.585938 519.425781 275.523438 512.992188 306.339844 515.710938 C 331.445312 517.886719 360.359375 525.679688 388.273438 533.203125 C 408.757812 538.734375 428.15625 543.898438 444.105469 546.347656 C 452.625 547.707031 459.695312 550.878906 464.679688 555.410156 C 484.800781 540.910156 515.890625 516.800781 533.5625 494.230469 C 563.382812 455.984375 603.625 489.519531 596.195312 521.875 C 592.113281 539.546875 575.347656 575.804688 508.1875 621.300781 L 507.28125 621.9375 C 457.882812 655.382812 411.207031 687.011719 344.5 665.261719 C 344.226562 665.167969 343.953125 665.078125 343.683594 664.898438 C 312.503906 650.578125 296.28125 660.183594 260.660156 681.210938 C 259.027344 682.117188 258.03125 682.753906 255.945312 682.753906 Z M 255.945312 682.753906 " fill-opacity="1" fill-rule="evenodd"/><path fill="#faf7f7" d="M 195.3125 728.886719 C 187.15625 728.886719 179.542969 724.535156 175.371094 717.375 L 122.984375 626.648438 C 116.640625 615.59375 120.445312 601.542969 131.414062 595.199219 L 177.183594 568.734375 C 188.152344 562.390625 202.289062 566.195312 208.636719 577.164062 L 261.023438 667.890625 C 267.367188 678.945312 263.558594 692.996094 252.59375 699.339844 L 206.824219 725.804688 C 203.289062 727.800781 199.390625 728.886719 195.3125 728.886719 Z M 188.605469 580.789062 C 187.246094 580.789062 185.886719 581.152344 184.707031 581.785156 L 138.9375 608.25 C 135.21875 610.425781 133.859375 615.320312 136.035156 619.035156 L 188.421875 709.761719 C 190.597656 713.570312 195.492188 714.839844 199.210938 712.664062 L 244.980469 686.289062 C 248.785156 684.113281 250.054688 679.21875 247.878906 675.410156 L 195.492188 584.683594 C 194.132812 582.238281 191.503906 580.789062 188.605469 580.789062 Z M 180.902344 575.257812 Z M 180.902344 575.257812 " fill-opacity="1" fill-rule="evenodd"/><path fill="#faf7f7" d="M 213.890625 720.546875 C 211.261719 720.546875 208.726562 719.1875 207.367188 716.742188 L 182.714844 674.050781 C 180.628906 670.515625 181.898438 665.894531 185.523438 663.71875 C 189.148438 661.726562 193.769531 662.902344 195.855469 666.527344 L 220.417969 709.21875 C 223.316406 714.203125 219.691406 720.546875 213.890625 720.546875 Z M 213.890625 720.546875 " fill-opacity="1" fill-rule="evenodd"/><path fill="#faf7f7" d="M 236.730469 707.316406 C 234.105469 707.316406 231.566406 705.957031 230.117188 703.597656 L 205.554688 660.910156 C 203.46875 657.285156 204.738281 652.660156 208.273438 650.578125 C 211.898438 648.492188 216.519531 649.761719 218.605469 653.386719 L 243.257812 695.984375 C 246.160156 701.0625 242.441406 707.316406 236.730469 707.316406 Z M 236.730469 707.316406 " fill-opacity="1" fill-rule="evenodd"/><path fill="#faf7f7" d="M 246.519531 336.070312 C 225.132812 336.070312 208.90625 312.597656 213.800781 291.296875 C 217.96875 272.988281 235.191406 236.917969 302.714844 191.234375 C 352.113281 157.882812 398.789062 126.25 465.496094 148.003906 C 465.769531 148.09375 466.039062 148.183594 466.3125 148.363281 C 497.945312 162.777344 513.988281 152.898438 550.242188 131.507812 C 553.867188 129.421875 558.488281 130.601562 560.574219 134.226562 C 562.65625 137.761719 561.480469 142.472656 557.855469 144.558594 L 557.039062 145.101562 C 520.511719 166.582031 498.398438 179.632812 460.421875 162.230469 C 400.875 143.015625 359.363281 171.207031 311.234375 203.742188 C 245.613281 248.0625 231.566406 281.507812 228.484375 294.742188 C 224.675781 311.507812 244.707031 335.074219 264.464844 309.789062 C 283.679688 285.226562 316.945312 259.574219 337.699219 244.710938 C 334.980469 230.480469 346.039062 212.625 376.21875 206.191406 C 435.042969 193.683594 478.09375 211.355469 479.90625 212.082031 C 483.804688 213.714844 485.617188 218.15625 483.988281 221.960938 C 482.355469 225.859375 477.914062 227.671875 474.105469 226.039062 C 473.746094 225.859375 433.320312 209.453125 379.394531 220.964844 C 348.667969 227.488281 343.320312 248.15625 368.152344 251.960938 C 384.921875 254.5 404.679688 259.847656 425.617188 265.464844 C 474.652344 278.609375 535.738281 295.011719 551.78125 269.636719 C 564.109375 250.238281 580.058594 240.449219 604.894531 226.675781 C 608.519531 224.589844 613.140625 225.949219 615.136719 229.574219 C 617.128906 233.199219 615.859375 237.824219 612.234375 239.816406 C 587.402344 253.683594 574.53125 261.929688 564.5625 277.792969 C 554.410156 293.746094 534.46875 300.269531 503.65625 297.550781 C 478.546875 295.285156 449.636719 287.582031 421.71875 280.058594 C 401.144531 274.53125 381.839844 269.363281 365.886719 266.917969 C 357.367188 265.558594 350.296875 262.382812 345.3125 257.851562 C 325.191406 272.265625 294.105469 296.375 276.429688 319.03125 C 267.640625 330.179688 257.125 336.070312 246.519531 336.070312 Z M 246.519531 336.070312 " fill-opacity="1" fill-rule="evenodd"/><path fill="#faf7f7" d="M 621.390625 247.609375 C 613.140625 247.609375 605.527344 243.261719 601.359375 236.101562 L 548.972656 145.375 C 542.628906 134.40625 546.433594 120.269531 557.402344 113.921875 L 603.171875 87.457031 C 614.230469 81.113281 628.277344 84.921875 634.621094 95.886719 L 687.011719 186.613281 C 693.355469 197.671875 689.640625 211.71875 678.582031 218.0625 L 632.808594 244.53125 C 629.277344 246.613281 625.378906 247.609375 621.390625 247.609375 Z M 614.683594 99.511719 C 613.324219 99.511719 611.964844 99.875 610.695312 100.601562 L 565.015625 126.976562 C 561.207031 129.148438 559.847656 134.042969 562.113281 137.761719 L 614.5 228.578125 C 616.585938 232.292969 621.480469 233.652344 625.289062 231.476562 L 671.058594 205.011719 C 674.773438 202.835938 676.132812 197.941406 673.957031 194.226562 L 621.570312 103.5 C 620.121094 100.960938 617.402344 99.511719 614.683594 99.511719 Z M 614.683594 99.511719 " fill-opacity="1" fill-rule="evenodd"/><path fill="#faf7f7" d="M 620.753906 150.539062 C 618.128906 150.539062 615.589844 149.179688 614.230469 146.734375 L 589.578125 104.042969 C 587.492188 100.507812 588.671875 95.886719 592.296875 93.800781 C 595.921875 91.628906 600.542969 92.894531 602.628906 96.519531 L 627.28125 139.210938 C 630.183594 144.285156 626.464844 150.539062 620.753906 150.539062 Z M 620.753906 150.539062 " fill-opacity="1" fill-rule="evenodd"/><path fill="#faf7f7" d="M 597.914062 163.683594 C 595.285156 163.683594 592.75 162.324219 591.390625 159.875 L 566.738281 117.277344 C 564.652344 113.652344 565.921875 109.027344 569.546875 106.945312 C 573.171875 104.859375 577.792969 106.039062 579.878906 109.664062 L 604.441406 152.351562 C 607.433594 157.429688 603.714844 163.683594 597.914062 163.683594 Z M 597.914062 163.683594 " fill-opacity="1" fill-rule="evenodd"/><path fill="#faf7f7" d="M 405.042969 521.421875 C 402.957031 521.421875 400.964844 520.605469 399.605469 519.15625 C 379.9375 498.851562 359.996094 483.808594 342.503906 470.394531 C 306.792969 443.292969 278.605469 421.8125 278.605469 377.582031 C 278.605469 339.789062 308.605469 308.972656 345.585938 308.972656 C 375.132812 308.972656 391.71875 323.382812 405.042969 346.222656 C 418.277344 323.382812 434.863281 308.972656 464.410156 308.972656 C 501.386719 308.972656 531.390625 339.789062 531.390625 377.582031 C 531.390625 421.8125 503.199219 443.292969 467.582031 470.394531 C 449.996094 483.808594 430.148438 498.851562 410.390625 519.15625 C 409.03125 520.605469 407.035156 521.421875 405.042969 521.421875 Z M 345.585938 324.109375 C 316.945312 324.109375 293.652344 348.125 293.652344 377.582031 C 293.652344 414.378906 316.761719 431.875 351.660156 458.429688 C 367.972656 470.847656 386.371094 484.804688 405.042969 503.113281 C 423.621094 484.804688 442.023438 470.847656 458.335938 458.429688 C 493.230469 431.875 516.34375 414.378906 516.34375 377.582031 C 516.34375 348.125 493.050781 324.109375 464.410156 324.109375 C 440.210938 324.109375 426.886719 334.53125 411.75 365.617188 C 409.03125 371.328125 400.964844 371.328125 398.246094 365.617188 C 383.109375 334.53125 369.785156 324.109375 345.585938 324.109375 Z M 345.585938 324.109375 " fill-opacity="1" fill-rule="evenodd"/><path fill="#faf7f7" d="M 314.316406 385.921875 C 310.148438 385.921875 306.792969 382.476562 306.792969 378.308594 C 306.792969 355.46875 326.734375 336.976562 351.207031 336.976562 C 355.375 336.976562 358.726562 340.332031 358.726562 344.5 C 358.726562 348.671875 355.375 352.023438 351.207031 352.023438 C 335.070312 352.023438 321.929688 363.804688 321.929688 378.308594 C 321.929688 382.476562 318.484375 385.921875 314.316406 385.921875 Z M 314.316406 385.921875 " fill-opacity="1" fill-rule="evenodd"/></svg>