<svg xmlns="http://www.w3.org/2000/svg" xmlns:xlink="http://www.w3.org/1999/xlink" width="1080" zoomAndPan="magnify" viewBox="0 0 810 809.999993" height="1080" preserveAspectRatio="xMidYMid meet" version="1.0"><defs><clipPath id="e695890030"><path d="M 147.824219 82 L 662.324219 82 L 662.324219 729 L 147.824219 729 Z M 147.824219 82 " clip-rule="nonzero"/></clipPath></defs><g clip-path="url(#e695890030)"><path fill="#faf7f7" d="M 562.199219 336.082031 L 561.285156 318.070312 L 558.433594 300.863281 C 557.886719 298.679688 556.007812 289.171875 556.109375 286.976562 C 556.238281 284.054688 555.160156 280.605469 554.757812 277.375 C 537.019531 299.304688 520.417969 320.957031 503.8125 343.976562 C 494.039062 357.527344 484.230469 372.316406 474.636719 386.101562 L 454.757812 416.007812 L 417.398438 473.84375 L 413.484375 479.875 C 410.070312 485.195312 402.613281 485.949219 398.136719 481.628906 L 346.15625 431.332031 C 342.527344 427.792969 338.355469 424.65625 335.558594 420.53125 C 334.636719 419.175781 299.003906 384.210938 292.121094 376.710938 C 290.113281 374.519531 287.769531 372.417969 285.496094 370.339844 C 282.992188 368.054688 282.613281 364.75 284.046875 361.785156 C 285.632812 358.496094 291.160156 346.148438 293.195312 344.476562 C 294.273438 343.589844 300.253906 333.324219 301.285156 331.265625 C 305.839844 322.203125 311.148438 314.609375 316.988281 306.84375 C 317.210938 306.554688 317.375 306.441406 317.6875 306.101562 L 312.941406 316.023438 C 314.566406 314.035156 313.972656 314.132812 313.222656 317.898438 C 313.855469 317.542969 314.761719 315.433594 315.460938 314.699219 C 315.925781 315.023438 308.726562 330.871094 308.128906 332.246094 L 294.832031 364.035156 C 316.167969 381.878906 335.589844 398.003906 356.070312 417.136719 L 391.039062 449.808594 C 394.339844 452.898438 399 456.753906 401.625 459.78125 L 403.320312 461.394531 C 421.585938 432.21875 440.082031 401.832031 458.863281 373.273438 C 473.136719 351.570312 488.933594 328.132812 504.292969 307.273438 L 513.070312 294.902344 L 520.058594 285.738281 C 523.789062 280.824219 529.351562 272.695312 533.269531 268.222656 C 536.730469 264.273438 539.832031 260.113281 543.128906 256.023438 C 552.199219 244.855469 560.621094 235.824219 570.136719 225.226562 L 559.960938 231.910156 C 527.148438 254.84375 498.757812 281.128906 471.640625 310.472656 C 467.476562 314.980469 463.445312 319.652344 459.175781 324.046875 C 458.65625 324.582031 458.179688 325.175781 457.6875 325.742188 C 441.582031 344.261719 416.5625 376.0625 400.683594 391.25 C 396.855469 394.914062 390.890625 394.820312 387.085938 390.917969 C 383.769531 387.515625 377.121094 380.332031 374.105469 376.457031 C 367.464844 367.914062 358.648438 358.757812 351.242188 349.578125 C 348.328125 345.96875 328.605469 322.726562 327.878906 321.257812 C 326.796875 319.089844 319.828125 310.195312 318.042969 308.179688 C 319.800781 309.5625 321.5625 311.097656 322.660156 311.425781 C 323.265625 311.617188 326.125 314.78125 328.25 315.8125 C 329.425781 316.378906 331.042969 317.707031 332.714844 319.183594 C 337.007812 322.964844 341.1875 326.328125 345.285156 328.964844 C 348.070312 330.753906 356.878906 338.851562 359.46875 341.300781 C 367.960938 349.335938 376.460938 355.652344 385.390625 364.175781 C 388.035156 366.695312 390.695312 369.175781 393.359375 371.660156 C 396.242188 367.386719 400.746094 362.847656 402.769531 359.445312 C 402.910156 359.203125 403.109375 358.933594 403.300781 358.71875 C 407.273438 354.242188 410.3125 349.378906 413.675781 344.632812 C 416.457031 340.707031 420.367188 336.578125 423.097656 332.929688 C 450.671875 296.085938 491.394531 254.191406 528.164062 225.949219 C 520.679688 219.582031 518.546875 217.988281 510 212.367188 C 496.140625 203.257812 478.945312 195.566406 463.300781 190.351562 C 461.621094 189.800781 460.003906 189.066406 458.3125 188.558594 C 442.75 183.851562 439.253906 183.515625 423.632812 181.378906 C 418.304688 180.648438 414.085938 180.613281 408.625 180.519531 C 382.796875 180.40625 359.648438 186.027344 336.328125 196.886719 C 326.46875 201.59375 317.148438 207.386719 308.492188 214.03125 L 297.210938 223.824219 C 292.050781 228.546875 285.273438 236.464844 280.667969 242.21875 C 276.144531 248.179688 267.96875 260.4375 264.792969 267.042969 C 256.667969 283.949219 252.441406 295.660156 249.71875 314.113281 C 244.335938 350.652344 250.234375 379 265.972656 411.96875 C 266.839844 413.75 267.589844 415.585938 268.453125 417.375 C 271.40625 423.363281 275.828125 430.976562 278.335938 436.539062 L 287.316406 452.65625 C 293.472656 464.011719 306.53125 489.28125 309.339844 500.023438 C 311.488281 508.238281 314.28125 513.914062 316.304688 523.152344 C 317.917969 530.507812 319.5625 536.183594 319.988281 543.820312 C 326.273438 542.246094 326.410156 542.476562 331.929688 542.097656 C 338.863281 541.605469 345.785156 541.984375 352.71875 541.792969 C 356.335938 541.695312 359.9375 541.769531 363.53125 541.910156 C 365.367188 541.976562 367.207031 541.808594 369.050781 541.800781 L 415.980469 541.667969 C 419.363281 541.585938 422.757812 541.503906 426.152344 541.421875 L 463.027344 541.4375 C 472.035156 541.859375 482.636719 540.402344 491.28125 542.46875 C 493.394531 523.773438 494.285156 517.027344 502.109375 499.25 L 504.871094 492.960938 C 505.730469 490.261719 506.28125 490.644531 506.484375 489.722656 C 507.011719 487.367188 519.515625 462.699219 521.632812 458.773438 C 528.96875 445.179688 535.871094 434.398438 541.867188 420.332031 C 542.785156 418.179688 543.28125 417.925781 544.59375 414.6875 L 549.703125 403.328125 C 550.109375 402.316406 550.414062 401.234375 550.808594 400.230469 C 554.539062 390.9375 554.808594 389.859375 557.261719 380.039062 C 561.207031 364.242188 562.199219 352.09375 562.199219 336.082031 Z M 498.199219 626.804688 C 497.808594 624.359375 496.027344 619.253906 494.597656 617.847656 C 492.886719 616.160156 490.683594 615.988281 490.683594 614.886719 C 483.550781 616.636719 471.007812 615.429688 463.773438 615.511719 L 434.308594 615.175781 L 397.394531 614.605469 C 394.859375 614.539062 392.660156 615.179688 390.371094 614.101562 C 389.511719 613.699219 366.988281 613.144531 361.699219 612.371094 C 357.492188 611.757812 350.519531 613.488281 349.179688 612.265625 C 347.53125 610.761719 334.375 613.035156 328.863281 609.363281 C 329.671875 608.777344 332.351562 608.519531 333.460938 608.34375 C 331.941406 607.734375 332.703125 608.167969 333.640625 606.761719 C 333.253906 606.273438 330.261719 606.140625 332.230469 605.53125 C 335.746094 604.445312 346.144531 603.332031 350.703125 602.523438 C 364.101562 600.148438 382.632812 597.804688 396.171875 597.488281 L 418.425781 596.992188 C 420.648438 596.953125 423.523438 596.535156 425.191406 596.902344 L 480.246094 595.699219 C 485.699219 595.660156 490.257812 594.15625 493.96875 589.609375 C 499.164062 583.25 498.871094 574.292969 492.859375 568.609375 C 491.164062 567.007812 490.710938 566.246094 488.234375 565.230469 C 481.882812 562.628906 476.496094 563.976562 469.15625 563.96875 L 436.714844 564.671875 C 419.371094 565.21875 399.722656 565.242188 382.195312 565.402344 C 370.503906 565.511719 357.8125 565.023438 345.941406 564.867188 C 343.046875 564.820312 340.144531 564.886719 337.253906 564.546875 L 326.085938 564.75 C 319.105469 565.542969 313.929688 571.613281 312.296875 578.324219 C 311.628906 581.070312 310.75 582.292969 311.769531 586.3125 C 314.59375 597.441406 322.332031 601.011719 323.289062 602.550781 C 323.621094 603.738281 324.1875 603.078125 324.511719 603.605469 C 325.222656 604.757812 326.242188 604.800781 326.964844 605.675781 C 327.929688 606.769531 327.914062 606.777344 328.863281 607.265625 C 325.886719 608.839844 327.988281 608.53125 326.4375 608.863281 C 324.90625 609.191406 325.65625 610.085938 323.890625 610.75 C 320.78125 611.921875 321.027344 613.746094 320.09375 614.246094 C 318.621094 615.027344 316.21875 616.714844 315.402344 618.429688 C 314.453125 620.421875 311.117188 625.835938 311.933594 627.621094 C 312.578125 629.035156 311.730469 629.726562 312.386719 630.957031 C 312.621094 631.398438 311.945312 631.9375 313.714844 634.386719 C 314.609375 635.628906 313.046875 636.628906 319.8125 642.375 C 321.734375 644.003906 325.835938 645.617188 328.136719 645.585938 L 361.054688 645.421875 C 363.335938 645.398438 365.628906 645.21875 367.910156 645.175781 L 392.769531 645.191406 C 395.628906 645.597656 398.460938 644.976562 401.304688 645.117188 C 404.738281 645.292969 408.28125 644.851562 411.59375 644.796875 C 428.445312 644.519531 447.125 645.789062 464.472656 646.28125 L 480.972656 646.625 C 487.859375 646.894531 494.835938 642.480469 496.804688 635.773438 C 497.199219 634.425781 497.40625 634.785156 497.390625 633.457031 C 497.363281 631.539062 498.386719 631.6875 498.429688 630.964844 Z M 458.507812 666.84375 C 458.507812 666.664062 458.507812 666.480469 458.507812 666.296875 C 445.535156 666.355469 432.542969 666.175781 419.613281 667.171875 L 400.320312 667.496094 C 399.175781 667.519531 398.039062 667.71875 396.898438 667.71875 C 382.761719 667.71875 367.582031 668.785156 352.648438 668.929688 C 353.355469 670.128906 354.566406 674.4375 355.507812 674.929688 C 356.71875 675.5625 356.21875 676.671875 357.191406 677.0625 C 357.25 677.089844 357.296875 677.121094 357.296875 677.171875 C 357.554688 678.136719 358.601562 678.65625 359.359375 679.296875 L 360.585938 681.324219 C 362.632812 683.128906 366.164062 688.109375 367.082031 688.890625 C 367.980469 689.707031 368.738281 690.636719 369.464844 691.628906 L 376.714844 697.378906 C 378.550781 698.78125 383.261719 701.179688 385.535156 701.996094 C 388.074219 702.796875 398.933594 705.851562 401.105469 705.6875 C 403.53125 705.507812 404.019531 705.925781 405.761719 705.648438 C 415.691406 704.21875 418.589844 704.648438 428.722656 700.636719 C 437.21875 697.273438 446.707031 688.523438 450.949219 680.558594 L 451.890625 678.835938 C 452.195312 677.441406 453.210938 677.871094 453.566406 677.335938 C 454.789062 675.480469 457.152344 669.761719 458.097656 668.550781 C 458.484375 668.0625 458.492188 667.4375 458.507812 666.84375 Z M 625.683594 202.605469 C 615.535156 211.675781 602.960938 222.886719 593.953125 232.546875 L 573.976562 254.265625 L 563.789062 266.496094 L 565.460938 268.132812 C 566.113281 269.527344 566.914062 270.855469 567.414062 272.328125 C 568.4375 275.324219 570.988281 278.074219 572.253906 281.972656 L 575.550781 290.199219 C 576.929688 291.769531 576.679688 293.863281 577.757812 295.132812 C 577.824219 295.207031 577.882812 295.308594 577.890625 295.40625 C 578.195312 297.398438 579.300781 299.074219 580.15625 300.871094 L 581.320312 305.730469 C 584.683594 315.28125 585.390625 328.140625 585.671875 338.386719 C 585.949219 348.621094 584.867188 362.394531 582.792969 372.375 C 581.785156 377.230469 581.601562 379.882812 580.066406 385.132812 C 578.917969 389.066406 574.839844 402.171875 573.210938 404.972656 C 571.710938 407.625 571.132812 410.632812 569.765625 413.304688 L 565.488281 423.191406 C 559.019531 436.699219 553.828125 444.457031 546.109375 457.214844 C 543.414062 461.667969 536.90625 471.699219 534.761719 475.875 L 523 497.289062 L 513.664062 516.285156 C 512.875 518.964844 511.910156 518.492188 511.371094 519.566406 C 510.8125 520.703125 510.332031 521.863281 509.632812 522.9375 C 509.625 522.945312 504.992188 533.308594 503.292969 535.933594 C 501.609375 538.53125 501.929688 543.261719 500.441406 543.730469 C 499.820312 543.925781 499.566406 544.828125 499.238281 545.570312 C 524.964844 559.289062 525.355469 594.722656 502.089844 609.878906 C 515.433594 618.945312 518.179688 635.347656 509.851562 649.160156 C 508.636719 651.171875 504.085938 657.246094 501.511719 658.367188 C 501.171875 658.515625 497.777344 661.878906 491.40625 663.945312 C 484.703125 666.121094 475.707031 665.839844 468.535156 666.105469 C 469.222656 668.175781 469.386719 673.128906 469.4375 675.535156 C 469.570312 682.109375 467.160156 687.496094 464.019531 693.046875 C 463.632812 693.738281 461.136719 698.167969 460.410156 698.535156 C 460.253906 698.609375 460.164062 698.765625 460.105469 698.925781 C 459.320312 701.128906 451.722656 708.921875 449.753906 710.769531 C 440.214844 718.925781 430.964844 722.734375 418.929688 726.058594 C 412.433594 727.851562 408.597656 728.082031 401.699219 727.980469 C 398.199219 727.925781 399.949219 728.257812 395.804688 727.722656 C 384.601562 726.285156 378.597656 725.460938 368.160156 719.628906 C 359.695312 714.898438 354.554688 710.46875 348.660156 702.941406 C 346.3125 699.941406 341.785156 692.769531 340.484375 689.488281 C 339.007812 685.761719 336.308594 678.957031 337.195312 675.253906 C 337.75 672.953125 337.277344 671.59375 337.65625 669.148438 C 331.1875 669.175781 324.773438 669.214844 318.496094 667.402344 C 313.382812 665.925781 305.277344 661.261719 302.011719 656.792969 C 301.804688 656.523438 301.574219 656.277344 301.335938 656.019531 C 294.714844 648.800781 292.355469 641.34375 292.261719 631.746094 C 292.203125 625.546875 294.945312 616.976562 299.285156 612.882812 C 302.789062 609.578125 305.226562 607.074219 309.355469 605.050781 C 306.929688 604.453125 302.929688 599.683594 301.640625 597.757812 C 298.078125 592.429688 294.824219 586.195312 294.851562 579.601562 C 294.875 573.214844 295.375 571.621094 297.109375 566.175781 C 298.480469 561.867188 298.90625 560.753906 301.625 557.085938 L 303.503906 554.441406 C 306.664062 551.617188 309.441406 548.316406 313.214844 546.289062 C 311.605469 543.828125 311.15625 540.074219 307.171875 534.75 C 305.921875 533.074219 303.382812 526.371094 302.632812 524.316406 C 300.847656 519.425781 296.039062 511.464844 293.417969 505.847656 C 292.570312 504.027344 286.992188 492.796875 285.414062 490.921875 C 283.101562 488.167969 281.773438 484.222656 279.984375 482.226562 C 279.859375 482.09375 279.734375 481.921875 279.671875 481.757812 C 278.019531 478.277344 275.683594 475.425781 273.53125 472.386719 C 271.90625 470.082031 270.15625 466.238281 268.75 464.101562 C 254.886719 443.050781 238.082031 411.53125 230.945312 386.6875 C 221.792969 354.820312 221.957031 318.691406 232.3125 286.949219 C 233.804688 282.375 236.074219 275.636719 238 271.59375 C 240.355469 266.648438 243.542969 258.9375 246.035156 254.632812 C 254.808594 239.464844 260.578125 229.839844 273.628906 216.210938 C 291.109375 197.949219 315.113281 182.410156 339.074219 173.679688 C 379.675781 158.890625 421.527344 157.636719 462.242188 171.84375 C 465.515625 172.988281 468.832031 173.554688 471.703125 175.867188 L 485.382812 182.714844 C 497.964844 189.347656 502.417969 193.8125 512.921875 201.507812 C 514.855469 202.867188 520.867188 206.929688 521.410156 208.578125 C 521.746094 209.601562 526.773438 214.625 527.929688 215.558594 C 530.121094 217.371094 531.96875 219.53125 533.855469 221.640625 C 550.617188 209.292969 573.710938 194.75 592.652344 185.914062 C 604.832031 180.230469 612.4375 177.40625 625.398438 172.921875 C 637.292969 168.8125 647.144531 184.183594 636.5 193.339844 Z M 589.3125 546.875 C 590.347656 546.71875 589.121094 549.34375 588.046875 549.667969 C 585.898438 550.738281 588.175781 552.363281 577.390625 553.617188 C 575.703125 553.8125 574.046875 551.996094 573.664062 552.003906 C 573.042969 552.015625 573.59375 551.574219 573.328125 551.640625 C 572.824219 551.761719 572.859375 551.367188 572.585938 551.277344 C 568.8125 549.554688 566.945312 546.269531 564.144531 545.410156 C 563.699219 545.273438 564.230469 545.09375 563.417969 544.855469 L 561.992188 543.710938 C 561.878906 543.621094 561.613281 543.644531 561.507812 543.53125 C 559.855469 541.792969 555.625 541.097656 552.605469 535.898438 L 552.191406 535 C 551.09375 533.867188 549.859375 531.570312 550.675781 529.898438 C 550.96875 529.292969 551.132812 527.117188 552.441406 524.285156 L 555.8125 519.488281 L 558.449219 518.085938 C 559.152344 518.261719 560.539062 516.726562 560.953125 517.714844 C 561.148438 518.183594 562.269531 517.558594 562.683594 518.019531 C 563.4375 518.863281 564.285156 518.207031 564.488281 518.367188 C 564.894531 518.6875 565.046875 518.277344 565.050781 518.394531 C 565.074219 518.730469 565.757812 518.410156 566.210938 518.308594 C 567.695312 519.300781 568.261719 518.363281 570.019531 520.847656 C 570.421875 521.417969 577.019531 526.65625 577.019531 527.195312 L 580.085938 529.660156 L 582.945312 534.398438 L 587.765625 541.066406 C 587.890625 541.285156 588.503906 540.96875 587.890625 541.890625 C 587.632812 542.273438 588.191406 542.984375 588.195312 542.984375 C 589.253906 545.183594 587.660156 545.113281 589.546875 545.492188 C 589.550781 545.492188 588.8125 546.949219 589.3125 546.875 Z M 222 200.949219 L 223.25 201.558594 C 223.472656 201.484375 222.96875 201.9375 223.53125 201.878906 C 223.871094 201.84375 225.34375 203.445312 226.9375 203.175781 C 236.960938 201.460938 235.265625 199.875 237.1875 198.820312 C 238.253906 198.441406 239.515625 195.941406 238.558594 196.128906 C 238.078125 196.21875 238.875 194.8125 238.855469 194.808594 C 237.261719 194.582031 238.695312 194.996094 237.410156 191.765625 C 237.351562 191.617188 238.128906 190.832031 237.644531 190.84375 L 234.171875 186.1875 L 230.933594 180.492188 C 230.390625 179.800781 228.164062 178.78125 228.1875 178.355469 L 224.191406 174.753906 L 221.992188 172.816406 C 220.40625 170.542969 219.925781 171.503906 218.5625 170.667969 C 216.566406 171.203125 217.113281 170.527344 216.402344 170.929688 C 215.769531 171.292969 215.578125 170.265625 214.292969 170.535156 C 213.335938 170.738281 213.605469 169.75 212.828125 170.273438 C 211.4375 171.203125 209.679688 170.894531 207.480469 174.03125 C 205.824219 176.382812 206.019531 175.355469 204.644531 178.480469 L 203.257812 182.496094 C 202.671875 183.628906 203.15625 185.484375 203.695312 186.433594 L 204.4375 187.273438 L 206.472656 190.539062 C 209.726562 193.289062 211.566406 193.597656 212.621094 194.652344 C 212.71875 194.75 212.96875 194.707031 213.074219 194.789062 L 214.351562 195.78125 C 215.089844 195.933594 214.550781 196.132812 214.996094 196.257812 C 217.90625 197.078125 218.304688 199.058594 220.632812 200.199219 Z M 256.6875 526.34375 L 257.109375 529.28125 C 257.292969 530.984375 255.484375 532.609375 255.511719 532.996094 C 255.550781 533.570312 255.078125 533.105469 255.140625 533.332031 C 255.261719 533.820312 254.867188 533.804688 254.769531 534.082031 C 252.902344 538.070312 249.828125 539.628906 248.910156 542.515625 C 248.761719 542.972656 248.597656 542.414062 248.347656 543.242188 L 247.210938 544.660156 C 247.113281 544.792969 247.144531 545.046875 247.039062 545.152344 C 245.871094 546.308594 245.15625 548.691406 242.210938 552.011719 L 238.582031 554.40625 C 238.566406 554.414062 235.707031 557.105469 233.398438 555.992188 C 232.71875 555.660156 230.597656 555.527344 227.785156 554.21875 L 222.988281 550.847656 L 221.589844 548.210938 C 221.761719 547.507812 220.210938 546.132812 221.226562 545.707031 C 221.679688 545.515625 221.050781 544.398438 221.523438 543.976562 C 222.347656 543.234375 221.714844 542.339844 221.871094 542.167969 C 222.191406 541.816406 221.773438 541.613281 221.894531 541.609375 C 222.242188 541.574219 221.910156 540.902344 221.8125 540.4375 C 222.808594 538.957031 221.816406 538.453125 224.339844 536.648438 C 224.867188 536.269531 229.882812 529.972656 230.6875 529.640625 C 231.125 529.640625 232.191406 527.503906 233.148438 526.566406 L 237.882812 523.714844 L 244.558594 518.894531 C 244.78125 518.769531 244.476562 518.152344 245.390625 518.769531 C 245.925781 519.132812 247.066406 517.789062 248.539062 518.078125 C 249.257812 518.222656 248.480469 516.527344 249.445312 517.304688 C 249.980469 517.734375 250.375 517.351562 250.375 517.351562 C 250.121094 516.34375 252.832031 517.464844 253.171875 518.613281 C 253.4375 519.523438 253.167969 518.636719 253.914062 519.621094 C 255.46875 521.675781 255.027344 518.429688 256.6875 526.34375 Z M 662.28125 367.558594 C 661.839844 364.351562 661.097656 365.40625 660.984375 365.339844 C 660.089844 364.78125 660.640625 363.972656 660.324219 364.203125 C 658.972656 365.1875 660.597656 364.617188 656.996094 363.074219 C 656.835938 363.003906 656.832031 361.90625 656.476562 362.257812 L 650.453125 361.417969 C 649.796875 361.503906 645 359.636719 643.785156 359.695312 L 640.164062 360.117188 L 634.511719 360.386719 L 631.445312 360.585938 C 628.539062 360.082031 628.949219 361.121094 627.292969 361.472656 C 626.296875 363.175781 626.089844 362.457031 625.882812 363.195312 C 625.6875 363.882812 624.808594 363.324219 624.027344 364.410156 C 623.441406 365.222656 622.921875 364.335938 622.730469 365.257812 C 622.402344 366.886719 620.84375 368.027344 621.542969 371.703125 C 622.410156 376.230469 621.21875 372.800781 623.21875 377.941406 C 623.8125 379.472656 624.3125 379.394531 624.710938 380.660156 C 625.246094 382.363281 627.507812 383.175781 629.027344 383.191406 L 629.894531 383.539062 C 635.074219 385.070312 638.507812 382.640625 640.699219 382.640625 C 640.847656 382.640625 641.003906 382.441406 641.152344 382.417969 L 642.824219 382.21875 C 643.511719 381.804688 643.246094 382.335938 643.660156 382.09375 C 645.921875 380.785156 649.570312 381.6875 653.011719 380.289062 C 653.253906 380.15625 653.507812 380.445312 653.738281 380.015625 C 653.855469 379.773438 653.804688 380.488281 654.199219 380.035156 C 654.808594 379.332031 657.003906 381.292969 660.367188 374.40625 C 660.917969 373.277344 662.125 371.933594 662.039062 370.871094 C 661.839844 367.777344 662.183594 368.535156 662.28125 367.558594 Z M 188.578125 366.121094 C 188.214844 364.667969 187.699219 365.414062 187.605469 365.339844 C 186.605469 364.558594 187.292969 363.941406 186.945312 364.203125 C 185.640625 365.195312 187.136719 364.582031 183.609375 363.074219 C 183.4375 363.003906 183.46875 361.910156 183.089844 362.257812 L 177.0625 361.417969 C 176.429688 361.511719 171.601562 359.632812 170.40625 359.695312 L 166.777344 360.117188 L 161.125 360.386719 L 158.058594 360.585938 C 155.070312 360.09375 155.558594 361.121094 153.902344 361.472656 C 153.675781 361.871094 153.441406 362.570312 153.195312 362.355469 C 153.175781 362.339844 152.203125 363.839844 151.417969 363.773438 C 150.835938 363.726562 150.523438 364.972656 150.074219 364.777344 C 149.148438 364.382812 149.242188 366.46875 148.695312 366.808594 L 147.871094 369.667969 L 148.804688 375.433594 C 149.675781 378.136719 151.082031 379.941406 151.316406 380.660156 C 152.117188 383.105469 155.691406 383.179688 155.761719 383.214844 L 159.691406 384.082031 C 164.011719 383.804688 165.691406 382.640625 167.324219 382.640625 C 167.464844 382.640625 167.613281 382.441406 167.769531 382.417969 L 169.433594 382.21875 C 170.125 381.808594 169.890625 382.332031 170.273438 382.09375 C 172.386719 380.78125 175.0625 381.652344 177.402344 380.898438 L 180.351562 380.015625 C 180.5 379.785156 180.402344 380.488281 180.816406 380.035156 C 181.0625 379.765625 183.355469 379.847656 184.308594 378.550781 C 190.339844 370.34375 188.246094 369.925781 188.496094 368.585938 C 189.113281 367.429688 188.917969 367.609375 188.578125 366.121094 Z M 392.902344 99.21875 C 392.902344 97.757812 394.804688 93.980469 394.804688 91.554688 L 395.480469 87.449219 C 395.121094 87.066406 396.199219 87.15625 396.289062 86.96875 L 397.039062 85.46875 C 398.183594 84.308594 398.011719 84.671875 397.410156 83.871094 C 397.410156 83.871094 398.960938 83.421875 398.554688 83.175781 C 397.703125 82.667969 400.398438 81.769531 401.433594 82.253906 C 402.8125 82.898438 403.808594 81.660156 406.023438 82.953125 C 407.664062 83.910156 412.046875 85.734375 412.664062 87.539062 L 413.25 89.554688 C 413.710938 89.917969 413.007812 89.867188 413.234375 89.984375 L 414.160156 93.105469 C 415.015625 95.921875 413.863281 96.71875 415.359375 99.519531 C 415.070312 99.847656 415.457031 99.65625 415.566406 100.796875 C 416.199219 105.71875 418.027344 106.109375 416.753906 112.105469 C 416.703125 112.335938 416.769531 112.574219 416.425781 112.808594 C 416.1875 116.695312 414.015625 116.539062 412.46875 117.644531 C 410.042969 119.371094 404.15625 120.367188 401.621094 119.871094 L 400.019531 119.367188 C 399.648438 118.855469 397.589844 118.90625 397.992188 118.074219 C 398.1875 117.675781 396.941406 117.359375 396.980469 116.839844 C 397.050781 115.875 395.957031 115.742188 395.941406 115.535156 C 393.863281 113.851562 394.949219 114.582031 394.554688 113.953125 C 393.59375 113.195312 393.511719 111.320312 393.789062 110.671875 C 393.976562 109.625 392.914062 102.933594 393.328125 102.578125 Z M 392.902344 99.21875 " fill-opacity="1" fill-rule="evenodd"/></g></svg>